<?xml version="1.0" encoding="UTF-8"?><svg id="Calque_2" xmlns="http://www.w3.org/2000/svg" viewBox="0 0 169.01 246.76"><g id="Calque_1-2"><g id="_1_club"><g id="base"><path d="M1.25,238.04c0,3.78,3.09,6.87,6.87,6.87h152.79c3.77,0,6.86-3.09,6.86-6.87V9.72c0-3.78-3.09-6.87-6.86-6.87H8.12c-3.78,0-6.87,3.09-6.87,6.87v228.32Z" fill="#fff" stroke="#000" stroke-miterlimit="4" stroke-width="2.5"/></g><g id="ace"><text transform="translate(5.25 38.99) scale(.53 1)" font-family="Arial-BoldMT, Arial" font-size="45.45" font-weight="700" isolation="isolate" letter-spacing="-.04em"><tspan x="0" y="0">A</tspan></text></g><g id="ace-2"><text transform="translate(164.76 207.77) rotate(-180) scale(.53 1)" font-family="Arial-BoldMT, Arial" font-size="45.45" font-weight="700" isolation="isolate" letter-spacing="-.04em"><tspan x="0" y="0">A</tspan></text></g><g id="club"><path d="M11.55,48.33c0,1.81,1.51,3.28,3.38,3.28s3.38-1.47,3.38-3.28-1.51-3.28-3.38-3.28-3.38,1.47-3.38,3.28Z"/><path d="M7.19,54.54c0,1.81,1.51,3.28,3.38,3.28s3.38-1.47,3.38-3.28-1.51-3.28-3.38-3.28-3.38,1.47-3.38,3.28Z"/><path d="M15.84,54.56c0,.66.2,1.28.55,1.8.6.89,1.65,1.48,2.83,1.48,1.87,0,3.38-1.47,3.38-3.28s-1.51-3.28-3.38-3.28-3.38,1.47-3.38,3.28Z"/><path d="M10.96,60.93c1.67,0,2.55-1.36,3.01-2.72.46-1.36.5-2.72.5-2.72h.86s.16,5.43,3.5,5.44h-7.87Z"/><path d="M17.21,50.74c-1.9,1.9-1.9,4.75-1.9,4.75h-.85s0-2.9-1.85-4.75"/><path d="M16.83,56.84c-1.9-1.9-4.75-1.9-4.75-1.9v-.85s2.91,0,4.76-1.85"/><path d="M13.03,56.85c1.9-1.9,4.75-1.9,4.75-1.9v-.85s-2.91,0-4.76-1.85"/></g><g id="club-2"><path d="M158.47,198.43c0-1.81-1.51-3.28-3.38-3.28s-3.38,1.47-3.38,3.28,1.51,3.28,3.38,3.28,3.38-1.47,3.38-3.28Z"/><path d="M162.82,192.22c0-1.81-1.51-3.28-3.38-3.28s-3.38,1.47-3.38,3.28,1.51,3.28,3.38,3.28,3.38-1.47,3.38-3.28Z"/><path d="M154.17,192.2c0-.66-.2-1.28-.55-1.8-.6-.89-1.65-1.48-2.83-1.48-1.87,0-3.38,1.47-3.38,3.28s1.51,3.28,3.38,3.28,3.38-1.47,3.38-3.28Z"/><path d="M159.06,185.84c-1.67,0-2.55,1.36-3.01,2.72-.46,1.36-.5,2.72-.5,2.72h-.86s-.16-5.43-3.5-5.44h7.87Z"/><path d="M152.8,196.02c1.9-1.9,1.9-4.75,1.9-4.75h.85s0,2.9,1.85,4.75"/><path d="M153.18,189.93c1.9,1.9,4.75,1.9,4.75,1.9v.85s-2.91,0-4.76,1.85"/><path d="M156.99,189.92c-1.9,1.9-4.75,1.9-4.75,1.9v.85s2.91,0,4.76,1.85"/></g><g id="club-3"><path d="M76.97,105.33c0,4.34,3.62,7.87,8.11,7.87s8.11-3.53,8.11-7.87-3.62-7.87-8.11-7.87-8.11,3.53-8.11,7.87Z"/><path d="M66.51,120.23c0,4.34,3.62,7.87,8.11,7.87s8.11-3.53,8.11-7.87-3.62-7.87-8.11-7.87-8.11,3.53-8.11,7.87Z"/><path d="M87.29,120.28c0,1.58.48,3.07,1.32,4.32,1.44,2.14,3.96,3.55,6.79,3.55,4.49,0,8.11-3.53,8.11-7.87s-3.62-7.87-8.11-7.87-8.11,3.53-8.11,7.87Z"/><path d="M75.55,135.56c4.01,0,6.12-3.26,7.22-6.53,1.1-3.26,1.2-6.53,1.2-6.53h2.06s.38,13.03,8.4,13.05h-18.88Z"/><path d="M90.57,111.12c-4.56,4.56-4.56,11.4-4.56,11.4l-2.04.02s0-6.98-4.44-11.42"/><path d="M89.66,125.75c-4.56-4.56-11.4-4.56-11.4-4.56v-2.04s6.98,0,11.42-4.44"/><path d="M80.52,125.77c4.56-4.56,11.4-4.56,11.4-4.56v-2.04s-6.98,0-11.42-4.44"/></g><g id="laurel"><path d="M95.51,152.58c1.16.47-.05,1.14,0,0M79.51,152.58c0,1.75,1.34.29,0,0M81.78,151.47c.7-.01,1.83.89.61,1.2-.8.2-1.72-.98-.61-1.2M87.55,152.67c-2.33-.74.55-2.58,0,0M79.33,150.83c.44.92.71,2.54,2.01,2.54-.5-.7-.92-.94-1.05-1.84.27.21,1.58,1.43,1.45,1.74-.67,1.54-2.46,0-3.11-.59-1.68-1.51-1.85-1.52.7-1.85M76.29,150.71c.24.49-.11.63,0,0M91.66,150.13c-.1.19-.24.31-.44.35.06-.21.22-.34.44-.35M90.79,150.22c-.23-.12-.47-.14-.7-.09.21.2.33.43.35.7h-.44c.34,1.19.31,2.07-.77,2.91-.44.34-1.13.83-1.35.24.38-.58,1.54-6.02,2.91-3.76M75.92,150.48c-.22,1.48-2.68.11-2.62-.87.87.39,1.7.47,2.62.87M89.13,149.61c-.21.5-.54.89-1.05,1.05-.03-.54.37-1.4,1.05-1.05M76.27,149.43c.48.64-.65.82,0,0M81.26,150.48c.02.28-4.24.41-4.11-.52,1.01.26.64-.76,1.76-.46.47.13,1.04.09,1.46.29.42.43.3.69.89.7M99.62,149.61c.42.01.83-.1,1.22-.26-.42-.07-.87.03-1.22.26M91.58,149.26l.09.09c-.11.47-.82.62-.09-.09M83.53,148.74c.34.44.67,1.04,1.05,1.31.27-.53-.38-1.67-1.05-1.31M84.49,151.1c-.81-.2-2.56-1.96-1.58-2.65,1.59-1.11,2.34.96,2.57,2.02.12.55,2.43,3.45,1.28,3.57-.65.05-2.89-2.36-2.27-2.95M98.14,147.69c.12.04.19.48.44,0-.18-.1-.28.03-.44,0M70.67,146.2c-.1.47-.07.94.09,1.4-.56-.35-1.69-1.91-.09-1.4M94.99,145.94c.55,2.49-3.45.88-3.41,2.89-1.36-1.75,1.6-3.4,1.22-1.75.74-.33,1.43-.81,2.19-1.14M66.47,144.89c.99.76,2.23,1.08,3.06,2.03.14.16.93.99,0,.86-.31.08-.62-.65-.71-.73-.85-.49-2.15-1.2-2.35-2.16M93.41,146.11c-.47-.08-.92-.62-.61-1.14.57-.95,1.15.42.61,1.14M88.69,144.27c-.03.29-.06.58-.09.87-.36-.28-.28-.65.09-.87M87.9,144.1c.03.42,0,.88,0,1.31-.38-.34-.37-.93,0-1.31M99.45,143.57c-.08.21-.17.37-.17.61.23-.07.38-.24.44-.52,0,0-.26-.17-.26-.09M65.77,143.57c.38.3.61.65.61,1.14-.48-.2-.73-.64-.61-1.14M100.76,142.7c-.06.23-.12.47-.17.7.31-.29.19-.82.17-.7M102.16,142.18c-.45,1.33-2.18,2.14-2.45,3.24.77-.21,1.56-.33,2.36-.35-.35-.27-.82-.18-1.31-.17.46-.67,1.28-.79,1.84-1.22h-.35c.25-.22.43-.48.52-.79-.15.03-.29.06-.44.09-.04-2.01.02-.23-.17-.79M113.44,141.3c-.11,1.18-.69,3.27-2.32,3.09-1.43-.16-2.15,2.46-3.56.81-.65-.16-2.01.49-2.3-.14-.45-1,3.47-.93,3.89-.79-.72-1.02,1.01-.95,1.57-.7.12-1.18,1.78-1.68,2.71-2.27M68.75,140.51c.17.51.63,1.02.44,1.57-.44-.08-.88-.14-1.31-.09.74,1.29,2.02.2,2.62,1.66-.83.03-1.17-.47-2.01-.44.22.26.45.2.79.26-.27.42-.5.32-.61.7.89-.04,2.6-.35,3.15.61-.48.08-.88.05-1.22.35.5,0,1-.04,1.49-.14.72.47,1.41.99,2.19,1.37-.3-.37-.62-.89-.61-1.4-.83.03-.75-.02-1.03-.85-.52-1.57-1.27-1.99-.55-.02-1.54-.22-2.08-2.86-3.32-3.59M98.57,146.55c.14-.68-.78.65.17-.79-.79.38-1.73.32-2.45.79.33-.31.49-.66.52-1.14-.87.34-1.4,1.37-.35,1.66-.15.83-1.07.82-1.72,1.04-.8.28-1.77,1.39-2.48,1.49.71-1.39,1.47-1.32,2.62-2.39.28-.26,1.47-3.07.49-2.57-.54.28-1.65-.07-1.4-.9.51-1.46,1.55.29,2.14.17.52.34.83.72,1.49.46,1.18-.46.7-2.45,1.75-2.86.33-.13.75.45,1.18.36.88-.19,1.02-1.75,1.79-1.84.75-.26.66.78,1.22,1.04.79.37,1.51-.86,2.06.13.27.49-.04.8-.31,1.2-1.23.9-1.02.9-1.18,2.3-.27.73-2.21,2.74-3.02,2.76-.95-.41-.96-.73-1.87-.13-.39.67-1.12,1.91-1.98,1.08-.54-1.5-.16-1.77,1.32-1.88M112.13,141.48c-.06-.11-.09-.22-.09-.35-.53.49-.77,1.23-1.57,1.49.06-.34.01-.68.17-1.05-.44.7-.53,1.52-1.49,1.66-.08-.38,0-.73.26-1.05-.82.83-1.06,1.98-1.49.35-.32.16-1.03,2.48-2.1,1.64-.8-.63.86-2.66,1.49-2.99,1.3.09,1.57-.82,2.54-1.29.75-.36,1.39.14,2.27-.17.6-.21,1.68-.38,1.67.52,0,.8-1.1.88-1.66,1.22M56.85,138.94c-.16.45.17.98.44,1.31-.76-.35-1.51-.94-2.27-1.14.49.74,1.29,1.13,1.84,1.75-.24.05-.32.08-.52.09v.17c1.81.07,3.1,1.22,4.9,1.66-.58-.84-1.41-1.91-2.27-2.45.16.52.56.89.79,1.4-1.64-.43-1.84-1.99-2.89-2.8M75.13,147.34c-1.34-.42-3.51,0-3.85-1.84-2.46.81-2.55-.33-4.42-1.53-.2-.31-.22-.59-.37-.92.19-1-1.19-1.48-.98-2.19.19-.64.21-.47.96-.52,1.03-.06,1.07-.53,1.45-1.45,1.14-.72,1.75.74,1.98,1.62.69.66,1.71.17,2.33.77.55.54.16,1.35.71,1.91,1.03,1.06,1.18-.04,1.1,1.56-.03.53.48.62.79,1.01.2.44.14,1.09.29,1.57M110.99,138.24c-.03,1.85-2.43.77,0,0M112.74,136.84c.05.88-.56.69,0,0M107.15,138.76c-.94-.14-1.43-1.83-.26-1.83,1.93.73,0,.75.26,1.83M61.4,136.75c-.48.3-1.66.07-1.4-.79.07-.72,1.63-.4,1.4.79M112.39,135.09c-.02.46-.08.73-.44.79-.02-.34.11-.7.44-.79M108.36,134.83c.98.7.71,2.45-.73,1.92-1.1-.4.06-1.72.73-1.92M117.38,134.42c1.39.09.52,1.22-.15,1.64-1.52.97-.76-1.33.15-1.64M113.62,134.39c.42.71.31,1.86-.44,2.27.07-.68-.22-1.86.44-2.27M61.14,133.43c.85,3.3-2.69.8,0,0M114.76,132.9c0,.18-.08.38-.17.52-.33-.08-.49-.08-.44-.35.2-.06.41-.12.61-.17M55.28,132.47c.59.31.79,1.51.87,2.1-.55-.1-.89-1.56-.87-2.1M50.64,130.94c.99.08,1.7,1.15.44,1.44-1.14.11-1.83-1.07-.44-1.44M54.75,131.42c-.68-.77.44-1.1,0,0M50.03,129.32c-.17.58.16.57.61.79-.8,2.29-2.27-.87-.61-.79M52.22,126.52c.56.54,1.12,1.06,1.57,1.66-.8.22-1.43-1.12-1.57-1.66M113.97,125.99c.19,1.17.33,2.63-.26,3.67,0-.24-.12-.4-.35-.44.02.2,0,1.98.47,1.71.35-.2,1.17-2.12,1.28-2.58-.25.21-.6.62-.7.79-.26-1.04.27-1.74.52-2.71-.42.47-.66.19-.7-.44h-.26M118.95,125.91c-.12.73-.23,1.46-.35,2.19.41-.48.65-1.81.35-2.19M118.78,123.98c.02.33.07,1.66-.7,1.22.14-.5.32-1,.7-1.22M50.73,123.11c.97.84.9,1.16.44,2.27-.65-.53-1.11-1.62-.44-2.27M118.25,129.84c.28-.4.66-.45,1.14-.61-1.34-.44.81-1.81,1.49-2.01-1.14-.28.85-2.2,1.22-2.71-.65.32-.93,1.06-1.57,1.4.02-.45.11-.89.26-1.31-.65.68-.88,1.93-1.35,2.81-.59,1.11-1.39,2.06-2.15,3.05.53.62-.35,1-.92,1.19-1.93.65-.3-.79.19-1.42.42-.55,1.2-1.42,1.2-2.13-.35-.61-.71-1.26-.34-1.91.28-.48.75-.44,1.28-.56.65-.48.39-.55.56-1.43.37-2,1.59-.69,2.9-.92,1.54-.28,1.79.59.64,1.76-.21.78.43,1.44.23,2.17-.17.63-1.39.47-1.87.68-1.79,1.38-.13,2-2.89,1.96M117.47,122.32c.11.25.06.49-.17.61,0-.21.06-.43.17-.61M52.04,121.97c.15,1.21.59,2.88,2.01,2.8-.13.67-2.08,1.75-2.22.64-.06-.43.27-.82.19-1.25-.32-1.08-1.07-1.24.02-2.19M117.99,121.8c.26.22.28.44,0,.61-.13-.24-.13-.44,0-.61M52.74,122.84c-.15-.47-.22-.93-.09-1.4.69.15.74,1.21.09,1.4M114.49,120.68c1.06-.11,1.63,1.2.52,1.2-.73.08-1.21-.88-.52-1.2M117.47,120.4c.27.4.44.84.52,1.31-.42-.28-.7-.83-.52-1.31M52.22,119.7c2.6.87-.54,1.92,0,0M117.55,118.91c-.03.12-.06.23-.09.35.27.09.53.06.79-.09.02.44.01.88-.09,1.31-.48-.35-1.22-1.21-.61-1.57M51.43,118.91c.12.4.18.81.17,1.22-.61-.07-.38-.93-.17-1.22M120.62,118.7c.68.14,1.73,1.55.52,1.74-.92.15-1.02-1.29-.52-1.74M115.11,120.13c-1.62.87-1.34-1.28-.67-1.35,1.08-.11.31.65.67,1.35M54.75,120.31c-2.56.8-.75-4.03,0,0M54.67,118.47c-1.93-.32,1.86-2.29,0,0M51.78,116.9c.67.37.6,1.29.7,1.92-.66-.42-.96-1.2-.7-1.92M50.12,123.11c-.68-.42-.35-1.42-.09-2.1-1.13,1.18-.85-.91-.61-1.84-.17.18-.24.08-.44.35-.67-.96-1.42-2.23-.7.17-.28.11-.57.08-.87-.09.58.7,1.27,1.36,1.4,2.36-.37-.12-.82-.26-1.22-.26.29.39.89.79,1.4.61.35.93.67,1.67,1.14,2.54-.57.16-1.14.19-1.51-.26-.27-1.29-1.09-1.06-1.48-2.1-.1-.25.07-.61.11-.82.13-.81-.51-.92-.82-1.55-.43-.9.8-1.53.57-2.55-.66-2.89,1.71.36,2.52.64.78.76.31.87.7,1.88.17.45.88.59,1,1.01.17.62-.71,1.6-1.09,2.01M51.69,115.58c.16.28.33.39.17.61-.38-.11-.29-.35-.44-.61h.26M118.08,118.3c-.58-.34-.53-.76-.52-1.49-.45-.81-.74-.66-.53-1.55.66-2.82,1.04,2.65,1.06,3.03M52.39,115.58c-.61-3.97,1.79-1.7,0,0M117.55,111.74c.06.51.1,1.05.09,1.57-.61-.47-.75-1.15-.09-1.57M51.95,111.56c.24.57.18,1.22,0,1.84-.73-.52-.36-1.39,0-1.84M115.02,111.39c-.04.53-.19,1.02-.44,1.49-.64-.2-.82-.6-1.22-.17.37.13,1.29.83,1.71.62.34-.18.5-1.82-.05-1.93M53.27,112.44c-.58-.38-1.2-1.41-1.22-2.1.73.39,1.11,1.29,1.22,2.1M49.33,109.11c-.1.52-.1,2.15-1.17,1.01-.76-.81.48-1.07,1.17-1.01M122.1,109.81c-.59.05-1.92.71-1.52-.61,1.3-1.75,1.1-.13,1.52.61M117.03,108.33c.03.11,0,.2-.09.26-.22-.19-.22-.3.09-.26M52.3,107.28c.42.57.37,1.21.09,1.84-.64-.39-.56-1.31-.09-1.84M49.33,106.75c-.1.16-.16.34-.17.52.96-.06-.42,1.67-1.08,1.27-.81-.48.37-2.72,1.25-1.8M115.72,114.54c.32.92.87,1.72,1.22,2.62-1.63-.21-1.44-1.79-2.84-2.05-1.42-.26-.91-1.44-1.53-2.41-.29-.45-1.04-.56-.94-1.23.85-1.7,1.62-.56,2.78.17.15-.63.81-2.57.17-2.89-.08.43-.14.88-.17,1.31-.66-.78-.42-1.96-.79-2.8-.18,1.21.2,2.39.35,3.59-1.09-.62-2.96-1.81-1.96-3.2,1.04-.78.84-1.14,1.02-2.22.17-.99,1.7-.22,1.85.43.14.61-.19,1.18.44,1.62.48.34.58.76.29,1.27-.56.99.55,1.14.87,1.92.27.66-.62,1.15-.56,1.84.41.67.97,1.82-.21,2.01M53.18,105.7c-.38-.13-.55-.48-.44-.87.37.14.44.43.44.87M57.11,103.95c.38.79.73.49,1.31.26.06.48,0,.95-.18,1.4.11.46.42.82.4,1.31-.01.29-.49.43-.64.71-.19.36,0,.91.01,1.3-.61,1.06-1.26.28-1.52,1.75-.71.54-1.23.49-2.09.61,0-.44.21-.46.35-.85,1.08-.96.4-.1.64-.99.14-.53.64-.76.94-1.17.15-1.18.89-2.13,1.49-3.12-.6.22-.86.82-1.4,1.22-.64-.77-.4,1.43-.96,1.84-.07-.5-.13-.99-.17-1.49-.45.46-.43,1.33.17,1.57-.46,1.01-1.1,2.53-1.84,3.24-.37-1.09,1.84-2.88.52-3.24v.96c-.89-.58-.52-.89-.35-1.53.73-.48.47-1.05.77-1.79.39-.52.91-.36,1.5-.6.5-.32.62-1.04,1.05-1.41M115.54,105.35c-1.64-.37,1.02-2.84,0,0M114.84,102.81c-.29-.1-.45-.32-.44-.61.38.06.55.24.44.61M55.1,102.2c-.04.25-.18.43-.44.52-.12-.35.16-.34.44-.52M113.27,100.98v.17h-.17c0-.1.07-.16.17-.17M113.62,100.45c-.03.21-.08.34-.26.44.06-.33-.02-.49.26-.44M57.81,101.59c-.66.04-1.25-.48-1.11-1.18.35-1.72,1.84-.49,1.11,1.18M113.09,99.49c1.66-.37.29,1.73,0,0M58.95,100.54c-.92-.16-.72-1.55.13-1.7,2-.35.14,1.32-.13,1.7M112.13,98.53c.24.38.23.88.09,1.31-.57-.27-.41-.8-.09-1.31M107.5,98.09c.47,1.03.37,1.9,1.28,2.75.58.53.81,1.55,1.69,1.63,0-.79-.33-1.79-1.22-1.81-.88-.72-1.12-.89-.52-2.04-.4-.2-.8-.38-1.22-.52M111.17,98c.06.19,0,.35-.17.44,0-.2.02-.32.17-.44M115.46,96.6c.28,1.06.9,2.21.7,3.32-.33-.35-.71-.64-1.14-.87.47.78,1.22,1.43,1.66,2.27.38.07,1.07-2.05,1.22-2.36-.39,0-.71.15-.96.44-.04-.71.92-2.11-.17-2.36-.11.4-.17.82-.17,1.22-.45-.49-.73-1.32-1.14-1.66M59.48,95.29c1.74.34-.2,1.2,0,0M108.02,94.68c.1.42.05.78.35.96-.01-.5,0-.79-.35-.96M106.62,93.72c.08.38.22.73.44,1.05.11-.4-.08-.83-.44-1.05M113.71,95.12c.2-.94.44-1.08,1.19-.96.43.07.64.78.79,1.14.57.59,1.16.43,1.87.62.31.24.32.41.57.69-.21,1.31.96.8,1.21,1.75.11.42-.43.89-.59,1.22-.13.77.79,1.33.39,2.04-.49.86-.93,1.02-.6,2.07-.26.77-1.34,1.25-.9,2.19.49-.57,1.26-1.19,1.51-1.92.06-1.05.8-1.86.71-2.84-.06-.66-.56-1.19-.18-1.79.3-.47.42-1.08.09-1.55-.76-1.06-1.06-1.88-2.13-2.55-1.34-.01-1.64-1.33-2.97-1.62-1.29-.28-1.52.53-.97,1.52M103.21,93.11c.19.12-.01.18.35.17-.09-.12-.21-.18-.35-.17M104.96,92.93c.06.11.34.93.26.79-.49.12-1.02-.35-1.49-.44.87.66,1.85,1.28,2.8,1.84-.46-.75-1.1-1.43-1.57-2.19M55.54,94.77c-.09-.07-.38-.29-.52-.35-.01.94,0,1.82-.44,2.71-.38-.43-.33-2.03-.92-1.92-.17.03.27,3.25.13,3.67-.33-.36-.45-.99-1.05-.7.68,1.09.66,2.21.79,3.41.3-.33.48-1.09.61-1.66.41-.63,1.26-.95,1.78-1.51,1.52-1.67-1.24.52-1.51.72.21-1.61,1.78-2.4,2.54-3.67-.59-.05-.99.65-1.4.96.48-1.45,1.34-5.45,0-1.66M61.31,94.51c1.46-.16,2.78.51,4.2.7-.21-.24-.52-.45-.79-.61,1.05-.47,1.58.35,2.54.35-.18-.25-.34-.69-.52-.87.61-.13,1.21.05,1.84.09-.32-.41-.23-.7.26-.87-1.53-.35-1.09.22-2.54.54-.7.18-1.03-.35-1.92.27-.35.07-.55-.33-.88-.28-.77.32-1.62.43-2.45.3-.39.31-.54.51-1.05.48.47-.38.97-.96,1.56-1.23.45-.2.93.01,1.33-.2,1.03-.54.85-1.85,2.18-1.1.77.43.72.39,1.63.03,1.33-.52.92.1,2.09.26.29.04,2.22-.34,1.66.74-.33.62-.89.77-1.37,1.28-.35.37-.55,1.27-1.03,1.48-.74.31-1.46-.31-2.19.24-.83.62-1.39-.47-2.22-.55-.96-.09-2.04.34-2.32-1.03M55.98,91.47c.53.01.82.41,1.08.84.02.93.97,1.4.99,2.19.02.81-.69,1.18-.59,2.08.2,1.64-1.34,3.04-2.62,3.79-.62.96-.46,1.42-1.57,2-.58,0-.63-1.15-.81-1.52-.26-.55-.83-.98-.85-1.63-.02-.51.51-.81.56-1.31-.73-2.25.01-1,1-2.62.64-1.06-.17-1.35,1.38-1.93,1.15-.43.43-1.48,1.44-1.89M107.76,97.22c-.54-.1-1.42-.73-2.19-.93-.88.33-1.53.25-1.98-.55-.45-.8-1.02-.17-1.67-.67-.37-.28-1.45-2.31-1.36-2.57.37-1.15,2.24-.46,3.09-.79.12.75,1.06.56,1.66.7-.51-1.94-2.34-.76-3.76-.94-2.24.46-1.11,1.49-.62,2.75.59,1.49,1.6,1.43,2.82,2.31.62.45,1.27.32,2,.12.54.28,1.36.97,2.01.57M110.12,90.74c-.26.55-.74.43-1.22.15-.15-.09-.19-.3-.12-.43.24-.48,1.04.22,1.34.28M64.46,90.39c0-1.73,1.58-.08,0,0M61.23,88.91c.11.7.06,1.43-.17,2.1-.45-.56-.43-1.76.17-2.1M66.82,88.03c-.05.37-.26.7-.61.79-.08-.39.22-.64.61-.79M108.98,87.75c.69.6.81,2.54-.58,2.1-.81-.25-.37-2.07.58-2.1M63.76,86.55c-.26,1.13-.48,2.49-1.49,3.24.07-.97.72-2.62,1.49-3.24M93.5,86.2c-.52.04-.79-.22-.96.26,1.03.16,2.78.89,1.53-.82-.49-.18-.51.12-.57.56M72.68,86.81c.72.42,1.31.27,2.1.49.96.26,1.84.75,2.8,1-.5-1.24,1.61.14,2.01.35-.18-1.19,1.26-.79,1.84-1.05-1.13-.07-2.31.24-3.41-.17.2-.35.62-.5,1.05-.7-1.01.01-1.94.93-2.89.44.07-.32.28-.56.61-.7-.61.26-2.79,1.02-3.26.17-.73-1.31,3.47-1.07,3.49-1.07.75-.28.63-.31,1.35,0,.74.33,1.91-.43,2.42-.01.58.98.5.99,1.6,1.29.22.19.64.5.6.84-.09.88-1.04.74-1.64,1.12-.41.26-.73.8-1.23.88-.49.08-.9-.38-1.4-.3-1.38.21-.79,1.09-2.02.08-.82-.68-1.66-.4-2.53-1.18-.49-.44-1.29-.95-1.49-1.47M91.75,85.15c-.01.35.02.7.09,1.05-.69-.32-.93.16-.79.87.06-.06,2.79-1.68.7-1.92M98.49,84.97v.17h.7c-.19-.15-.43-.21-.7-.17M89.92,85.06c-1.17-.9-1,.69-.44.79.06-.11.09-.22.09-.35.56.18,1.06.44,1.66.44-.26-.63-1.2-2.28-1.31-.87M100.32,83.66c.02.27.14.5.35.7.24-.44-.11-.44-.35-.7M99.27,83.66c-.41.01-.07.2-.87.09.42.41,1.31.61,1.05,1.31.91-.06,1.5-.15,1.05.7.5.09.99.09,1.49,0-.76-.97-1.76-1.35-2.71-2.1M69.89,83.22c-.12.85-.02,1.83-.87,2.27.02-.84-1.63-1.56-.76-2.5.51-.55,1.16,0,1.64.23M92.54,83.31c.16.4.33,1.01.7,1.32.76.27,1.47,1.08,2.14,1.25.54.14,2.05.24.93,1.14-.72.58-1.27.37-2.11.46-.66.61-.63.86-1.45.35-1.3-.79-.43.18-1.78.02-1.26-.42-1.02-.92-2.3-.53-1.21.37-1.12-.54-1.03-1.39-.35-.81-.94-.52-1.65-.95-1.18-.7,1.06-2.04,1.4-2.73.37.13,1.36.77,1.73.75.16,0,.38-.78.72-.66.58.2.62.94,1.31,1.26.53.15.9-.18,1.4-.3M94.81,83.31c.38-.95,1.71,1.21,1.54,1.86-.22.81-2.88-2.03-3.19-2.27-.45-.35-2.28.38-2-.54.54-1.75,3.18.58,3.64.95M81.34,81.65v.17c.28.12.54.12.79,0-.22-.16-.51-.21-.79-.17M102.6,86.46h-.44v.17c1.63,0,.02-1.35.48-2,.29-1.04,1.82,1.96,1.86,2.35-.64,1.64-.15,1.02-1.99,1.27-.38-.13-.63-.13-.89-.48-.74-.99-1.44.15-2.37-.44-.65-1.21-1.41-.45-2.1-1.4-.32-1.25-.33-1.9-1.26-2.91-.34-.37-.8-.69-.28-1.15.43-.38,1.41.06,1.84.17,1.31-.6,1.63-.32,2.71.43.52.24,1.1.08,1.46.54.54.7,1.06,2.49.99,3.43M79.77,80.6c-1,1.78-2.9,2.74.87,2.19-.9-.01-1.01-.13-.87-.79-.31.24-.63.33-.96.26.44-.44,1.15-1.31.96-1.66M81.08,79.9c-.34.5-.59,1.07-.7,1.66.21,0,.44-.07.61-.17-.16-.54.39-1.26.09-1.49M67.7,87.25c.42-.14.79-.48,1.14-.79.58-.29,1.09.06,1.66-.44-.38.06-.76.09-1.14.09.36-1.66,1.67-1,2.62-1.75-2.19.14-.11-1.11.7-1.31-.84-.29-.5-.4-.26-1.22-.31.43-1,1.21-.87,0-.28.41-.55,2.36-1.22,2.36-.73,0,.23-3.15.35-3.5,1.1.69,1.4-.17,2.36-.65.81-.4,1.61.04,1.45.94-.24,1.39.13,2.78-1.4,3.57-.39.82-.44,1.31-1.39,1.65-.58.21-.78.07-1.02.61-.31.67-.86.71-1.52.88-1.27.32-1.54,1.07-1.89-.24-.54-2.03,2.16-2.23.43-.2M83.53,79.64c-.09.1-.15.22-.17.35.19-.06.26-.18.17-.35M89.92,81.3c.27-.18.77-1.39,1.3-.92.29.25-.34,1.46.63.74.06,1.58-3.39.21-3.27-1.13.06-.66.94-1.17,1.52-.79.71.47-.38,1.5-.17,2.1M87.82,79.02c.33.52,1.39,2.58,1.06,3.06-.29.43-1.34-.19-1.72-.14-.69.09-1.13.94-1.52,1.43-1.02,1.28-.31,1.88,1.12,2.23.3.42-.13.86.06,1.38.48.97,1.09.97,1.95.76.84-.21.6-.15,1.25.34.71.54,1.23.34,2.08.09.59.06,1.11.78,1.79.42.47-.25.7-.59,1.18-.77,1.41.21,2.16-1.4,3.32-.93.41.17.4.87.88,1.1,1.56.44,1.45-.71,2.54.92-1.37-.36-2.16.19-3.47.39-1.01.16-2.41-.11-3.18.57,1.01-.3,3.01-.07,1.57,1.31.63-.62,1.36-1.02,2.13-1.44,1.45-.79,2.37-.03,3.82-.48.56.43,1.39.48,1.88.9.49.91.75,2.14,1.88,2.07.54.38,1.09.85,1.66,1.22.98.18,1.07-.21,1.35.83.18.67-.02,1.48.12,1.97.44.73.87,1.08.54,1.92-.67-.43-1.02-1.53-1.84-1.57.47.7.92,1.42,1.45,2.08.5.63.54,1.68,1.35,1.33-.07.47.15.77.61.87-.19.36-.35.76-.44,1.14.4-.05.75.07,1.05.35-.39-.81.1-1.7.79-2.19-.18.53.27,1.2-.35,1.31.09.67.14.38.26.7.22-.08.43-.2.61-.35-.14.76-.4,1.47-1.14.61.45,2.21,1.21-.26,1.75-.09-.28,1.17-.35,1.74-1.4,2.56-.28.54-.4.9-.3,1.55-.19.45-.68.7-.95,1.15-.93,1.52.36,1.38.47,2.44.1,1.07-1.61,1.28-.34,2.45.82.76.61,1.7,1.31,2.62.49.41,1.26.43,1.78.79.2,1.03,1.06,1.24,1.88,1.75.35.58.24,1.32.22,1.99-.04,1.21.06,4.56-.65,5.18-.13-.74-.26-1.48-.26-2.23,0-.97.57-1.62.3-2.61-.31-1.12-1.24-1.64-1.7-2.6-1.13.87-1.69,3.85-.06,4.65.26.13.71.03.91.22.39.37.39,2.21.38,2.66-1-.7-1.88-1.95-2.95-.42-.57.81.1,1.54-.7,2.27-.09.51.28,1.36.06,1.74-.4.69-1.49,1.32-.85,2.22.5.69,1.08.75,1.37,1.63.04.49-.55,1.2-.7,1.66.61-.58,1.16-1.32,1.66-2.01-.43-.16-2.01-1.23-2.13-1.75-.09-.39.12-.62.29-.95.75-.6,1.01-.64.72-1.54-.16-.5.25-2.6.57-3.11.49-.78,1.07-.66,1.61.02.3.9,1.28,1.24,1.45,2.09-.29,1.15-.81,1.64.1,2.54-.11.78-.4,1.26-1.22,1.49.02-.1.09-.68.09-.61-1.24,1.08.17,1.65-1.15,2.47-2.2,1.37-2.76,4.18-4.71,5.66-.15-.87-.1-1.77.14-2.62-.27-.66-.38-1.38-.31-2.1-1.15.76-4.26,3.34-3.12,4.98,1.91,2.76-3.2.73-4.14,1.2-.38.31-1,1.65-1.53,1.5-.49-.13-.71-.44-1.27-.27-.76.6-1.19,2.91-2.1,2.84-.68-.05-.73-.45-.52-1.07-1.54.09-3.62-.07-4.29,1.7-.66,1.75-2.42,5.54-4.9,4.51.97-1.38,3.53-2.49,2.29-4.43-.82-1.28-2.52-.9-3.8-.86-1.61.04-3.03-.21-4.59-.52-4.9-.99-3.59,4.36.33,4.77-.79-.85-2.09-1.22-2.89-2.27-.42-.73-.47-2.04.62-2.03,1.21,0,3.05-.37,4.03.62.43.43.09,1.14.69,1.32.07-1.32.04-1.98.87-.61.13-1.16.65-.85.96.17.37-.03.23-.76.61-1.05,0,.42.06.82.17,1.22.49-.31.07-.94.52-1.22.16.74-.27,1.66.09,2.01-.35.55-.84,1.03-1.05,1.57.6-.51,1.35-1.13,2.1-1.4.36.99-1.49,2.56-2.36,2.64-.32.03-1.12-.68-1.42-.82-1.32-.58-1.89-1.01-2.69-2.26,1.54.27,3.17.66,4.72.26-1.44-.23-6.3-1.92-7.26-.44,1.12,0,.83-.38,1.46.53.49.7,1.08.55,1.6,1.11.8.86-.27,1.07-.7,1.77.33.02.56.2.61.52-1.37-.33-3.05-.23-4.33-.81-1-.46-1.23-1.06-2.15-.94.51-.51.12-2.09-.17-2.75-.61-1.39-.13-1.63-1.49-2.67-.6-1.05-1.53-2.48-2.97-2.22-.68-.44-.88-1.27-1.64-1.69-1.59-.9-1.81.68-2.83,1.3-.7-.06-1.58.06-1.79.87-.27,1.02,1.05,1.18,1.01,2.01-.79-.36-1.84-.93-2.48-1.57-.49-1.19-1.56-1.71-2-2.93-.28-.77,1.12-1.6,1.26-2.53.2-1.38-.86-2.45-1.5-3.55-.21.49-.54.86-.89,1.28-.71.85-.58,2.44-1.65,1.44.28.86.57,1.72,1.02,2.51.38.65,1.08,1.07,1.42,1.69.27.49-.23.69-.69.69-.07-.21-.23-.37-.44-.44-.15,1.12.68,1.25,1.62,1.24.72-.01.85.28,1.28.9.72,1.06.71,1.61,2,2.07-.19.17-.31.37-.35.61-.9-.45-1.56-1.09-2.27-1.66.12.89,1.11,1.25.61,2.01,1.31-.38,2.67.63,3.5,1.57,1.47-.54-1.2.49-.96.44h.87c-1,.56.27,1.25.26,2.27.39-.3,2.36-1.36,1.95.09-.45,1.56-4.58-.29-3.78-2.27-.59.18-1.11.03-1.57.26.72.03.76.43.82,1.05.44.89,1.33,1.5,2.29,1.71,1.01.23,2.07.1,2.69-.77.74-1.03,1.51-.74,2.69-.42-.04-.43-.14-.98-.17-1.31.69.4,3.47,1.24,4.02.35.14.51-.09.9-.7.87.03.35.2.64.52.87-.63-.06-2.67.1-2.19-1.14-.44-.15-.93.22-1.14.52.2.27.43.5.7.7-.24.08-.24.07-.44.09,1.4,1.59-.91,1.46-.44.09-.54,0-.92.33-.77.83.09.31.39.55.68.69,1.33.19,2.36-.29,3.58.64.86.66-1.68,1.25-.91,1.86s2.6,1,3.37.35c-.77.02-1.94.3-1.14-.7-.42.17-.86.29-1.31.35-.13-2.72,2.75-1.1,3.62-.03,1.85,2.3,3.35-.9,5-1.4.64-.19,1.41,1.44,1.73,1.84,1.14,1.05,2.7.78,3.92.04.42-.26,1.1-1.23,1.63-.83.82.61,1.05,1.96,2.38,1.6-1.08-.17-2.7-1.77-1.05-2.45.18.67,2,3.06,2.45,2.01-1.08-.15-2.04-1.14-2.01-2.27.67.29,2.56,2.07,3.32,1.81.79-.27.5-1.11-.09-1.4-1.22-.61-3.06.29-4.02-1.39-.19-.32.06-.2.09-.49.28-.19.59-.27.93-.27.4-.29.15-.86.65-1.23-.03.45.18.77.61.87-.13-1.63,1.21-1.67,2.21-.93,2.09,1.57,4.85,1.47,7.32,1.36-1.23-.38-2.02.01-3.26-.23-1.19-.23-3.14-.13-1.77-1.31.35-.3.55-1.02,1.01-1.16.32-.09.91.46,1.4.44,1.14-.03,1.82.32,2.88-.35.33.05.36-.04.6.28.24.34.46.99.63,1.37.07.15.58.11.63.42-.06.45-.45.48-.8.64-.28.26-.55.54-.79.84-.84.2-1.37-.18-2.2.16-1.45.59-2.15-.95-3.66.07-1.38.17-1.77-2.75-3.76-2.42.61.63,1.59.79,2.18,1.7.21.33.4.82.79,1.02.71.14,1.63-.37,2.2-.23.97,1.62,2.2.35,3.52.39,1.22.04,2.33-.73,3.21-1.54.55-.51.34-.79.13-1.27-.99-.48-1.21-1.73-2.33-1.9-.56-.08-1.34.88-1.76.34-.52-.68.59-1.18.97-1.39.52-.33.38-.45.86-.5.79.88,2.2.11,3.2.39,1.57.44,1.86-.93,3.11-1.04,1.27-.11,1.22-.65,2.28-1.36,1.6-1.07,2.01-5.1-.8-4.16-.28.09-1.6.63-1.49-.22.09-.75.47-1.92,1.15-2.32.02.79-.62,1.49.52,1.49,1.01-.39,1.94-.99,2.71-1.75,1.45-.03,2.22-.5,3.14-1.57.74-1.54-1.38-.81-1.8-.45-1.03.87-2.22,3.26-3.74,3.16,1.53-2.15,1.57-4.3,4.03-5.81,1.13-.69,1.52-1.55,2.92-1.17,1.1-.44,1.06-1.43,1.84-2.07,1.12-.2,2.27-1.01,2.14-2.25-.04-.39-.4-.98-.33-1.34.1-.52.56-.87.68-1.44,0-1.15-1.07-1.23-1.93-1.01-1.03.27-1.63-.32-2.74.05.36-1.51,1.71-1.84,2.89-2.5,1.39-1.14.36-2.62.61-4.06-.76.64-2.08.55-2.45,1.66.84-.44,1.86-1.22,2.27.26-1.07.27-1.34.25-2.45-.09-.49.81-.56,1.58-.12,2.45-.13.66-1.23,1.65-1.63,2.36-.15-1.78.08-3.99.55-5.73.32-1.18.75-2.33,1.07-3.52.37-1.33.8-.37,1.35-1.34-.64.05-2.49-.86-1.66-1.75.52-.84,2.13.69,2.1,1.4,1.45-.91.75-3.51.7-4.9-.69.25-2.31,1.78-2.7,2.39-.66,1.03-.54,1.83-.08,2.94-.05.37-.18.7-.4,1.01-.74.52-.55,1.12-.93,1.88-1.44-2.41-1.52-6.58-1.05-9.27-.77.06-1.22.09-1.47-.96.45-1.23-.29-1.76-.79-2.79-.27-.55-1-.61-1.18-1.23-.17-.59.56-1.12.11-1.66-1.48-1.25-.35-1.24-.86-2.8-.39.28-.61.86-.79,1.4-1.34-.94-.4-1.97-.79-3.32.36-1.62-.55-1.81-1.02-3.2-.35-1.03-.23-2.59-.83-3.48-.38-.56-1.26-.72-1.82-1.01-.32,1.59-.74,4.24,1.57,4.52,1.35,1.14.74,2.64,1.31,4.14-.93.17-.87-2.63-1.92-3.15.1,2.08-1.71-1.25-1.95-1.76-.84-1.81-.85-.41-1.9-.08,1.1-3.53-.64-5.86-3.18-8.06-1.5-1.3-2.95-.9-4.61-.89-1.07-.47-2.51-.14-2.54,1.16-.77-.54-1.55-1.06-2.32-1.6-.33-.43-.28-1.01-.59-1.46-1.05-1.15-2.78-1.01-4.17-.79M81.69,81.04c.32-.2,2.36-3.88,3.03-1.92.13.38-.16.59-.36.89-.38.58.15,1.1-.22,1.62-.27.38-.95.42-1.28.58-.24.17-.19.57-.37.8-.51.63-1.91.38-2.61.71-.77.37-1.72.48-2.21-.24-.43-1.69.87-1.38.65-2.97.61-.78,1.16-.55,1.9-1.24.35-.21.36-1.17.96-.51,1.04,1.14.72.56.51,2.28M61.58,92.41c-.43-2.02,2.55-4.44,2.97-6.47-1.62-.7-2.02,2.47-2.71,2.89-.04-.96.31-2.09-.87-2.19-.27,1.89-.43,3.79-.62,5.69-.12,1.18-.7,1.06-.87,2.01-1.26-1.31-3.57-5.3-4.73-1.71-.21.65-1.47.66-1.87,1.27-.79,1.22-.12,1.23-1.58,2.21-.41.69.09,1.27.04,1.99-.78,1.61.3,2.7.92,4.2.66,1.58-.44,3.86-.72,5.46-.35,2.02-.63,4.05-.82,6.09-.13-.4-.24-1.03-.57-1.4-.43-.23-.93-.54-.94-1.09-.01-.53.53-.6.85-.95.67-.75.38-1.58.13-2.45-.21-.74-.64-2.25-1.35-2.64-.38-.2-1.08,1.44-1.22,1.74-1.18,2.46.87,3.59,1.54,5.74-.5-.1-.83-.35-1.31-.35.77,1.09,2.15.78,2.53,2.45.28,1.27.85,2.18.88,3.58-.81-.88-1.81-1.68-2.74-2.38-.62-.46-1.59-.42-2,.28-.11.19-.08.49-.15.7.34,1.12-.1,1.48-.5,2.54,0,.52.06.62.4,1.11.62.88.13.78.22,1.69.08.83,1.08.98,1.5,1.58.45.64.21.92,1,1.35,1.39-.23,2.62,1.57,3.39,2.48,1.22,1.46,1.7,3.42,2.3,5.17-1.4-.32.47,1.14.61,1.31-1.72.35-3.06-1.6-2.9-3.06-.44-2.24-1.79-1.97-3.15-3.06-.76.23-.57,2.74-.16,3.5.46.84,1.34,1.25,2.28,1.08.9.35,1.8,1.09,2.6,1.64.95.66,4.18,3.05,1.26,3.35-1.05.11-1.28.22-1.84,1.05-.57.85.67,1.46.89,2.11.33.96.16,1.67,1.2,2.26,1.09.32,1.46.29,2.51.83.95.49,1.4-.4,2.21-.19.95.55,1.17,1.24,2.36.98-.82-.74-2.12-1.66-3.27-1.13-1.08.5-1.64-.76-2.67-.88-1.22-.15-1.26-.67-1.59-1.79-.2-.69-1.43-1.54-1.04-2.22.46-.79.84-.38,1.75-.51,1.18-.33,1.09-1.07,2.03.41.83.41.77,0,1.73-.09-.79-.39-1.04-.96-1.14-1.92-.19.14-.27.34-.26.61-.9-.44-1.7-1.17-2.1-2.1.58.48.95-.18,1.05-.44.11.69.04,1.33.44,1.66,0-1.48.01-1.49-.4-2.41-.54-.8-1.34-1.59-1.75-2.4-.27-.55.41-.71-.18-1.31-.43-.43-1-.25-1.26-.96-.14-.53.56-.89.5-1.4-.94-1.62-.2-1.36.35-2.76.25-.64-.4-1.16.15-1.65.96-.84,1.75,1.05,2.42,1.47,1.98-.3,1.23.81,1.57,1.88.2.61.7.8.82,1.4.04.18-.35.43-.34.61.06.22.51,1.22.42,1.4-.14.26-.52.49-.73.7-.17.36.17.7.1,1.09-.03.17-.17.61-.45.52-.73-.23-.25-2.44-.09-2.93-.18.15-.38.34-.52.52-.43-1.07-.25-1.91.17-2.97-.41-.05-.77.39-.96.7-.27-.83.01-1.21.09-2.01-.24.02-.31.19-.44.35-.3-.42-.5-1.56-1.14-1.4.17.46.32.93.44,1.4-.3-.17-.62-.29-.96-.35.51.86,1.31,1.36,1.57,2.36-.44-.19-1.56-.98-1.92-.44,1.15.33,2.09,1.21,2.45,2.36-.55-.15-.79-.34-1.31-.35.76.85,1.54.98,1.81,2.19.19.85.25,1.95.73,2.62.35-1.85,2.39-3.4,1.86-5.34.13-.94.65-.94.07-1.81-.54-.83-.78-2.15-1.41-2.8-.5-.52-.96-.4-1.56-.7-.46-.57-1.09-.99-1.81-1.15-1.33-.31-2.4.99-2.2-1.49.06-.11.09-.18.17-.26,1.1-.02,1.68-.35,2.18-1.33.61-1.22.2-2.48.17-3.74-.56.93-1.97.91-2.86,1.6-.94-.26-.13-2.43.2-3-.02-.76.02-1.75.53-2.36.69-.83,1.63-.39,2.5-.81.64-.31.75-.49.83-1.11.54-.53,1.2-.64,1.41-1.47.18-.71.79-1.02.92-1.68.13-.66-.07-1.33.01-2.01.1-.86-.05-1.16-.83-1.66-.47-.16-1.88-.55-2.32-.23-.48,1.65-.54,1.22-1.53,1.89-.6.41-.73.14-.95,1-.15.58-.1.96-.72,1.08.81-2.03,2.05-3.86,2.97-5.86,2.31,2.08,4.05-1.03,4.72-2.89-1.3-.28-2.41.16-3.63.47.09-.88,1.46-1.49,2.26-1.83,1.16-.48.39-.45.98-1.14.35-.41,1.1.34,1.26.45.53.14.73.13,1.32-.02,1-.26,1.23.28,2.22.17.86-.1,1.16-.51,2.05-.46.87.05,1.37-.28,1.97-.91.51-.54,2.26-1.4,2.08-2.32-.28-1.47-2.85-1.65-4.12-1.54-1.08.58-1.52.82-2.41-.07-.18-.18-.19-.34-.05-.55.63-.96,2.88-1.76,3.9-2.27,2.02-1.02,3.21-1.73,4.91.07.71.75,1.25.92,2.3.97.38.31.74.72,1.22.82.57.12,1.19-.25,1.66-.55.47.14,1.24.29,1.7.08.54-.24,2.07-1.11,2.47-1.51.31-.31.29-.73.13-1.12-.39-.96-1.49-.71-1.97-1.75-.85-.48-1.29.08-2.16-.03-1.34-.7-1.42-.12-2.76-.11-.43,0-.94-.16-.92-.65.04-.92,1.91.02,2.28-.13,2.6-1.02,5.13-.07,7.07-2.67.48-1.29,1.42-3.85-1.03-3.49-.88.13-1.12.31-1.97.01-.66-.23-.95-.16-1.55.13-.41.15-.89.78-1.42,1-1.4.57-.68,1.45-1.76,2.37-.1.2-.11,1.02-.35,1.08-1.45.41-1.15-1.36-1.26-2.4-.2-1.77-1.88-1.82-3.07-.62-.67.68-1.45-.11-2.08.53-.41.42-.48,1.06-.97,1.39-.74.49-1.65.57-1.78,1.65.14.73.76,1.29.09,1.89-.52.47-.99.42-1.02,1.21-.07,2.25-3.94,3.75-5.02,5.73"/></g></g></g></svg>