<?xml version="1.0" encoding="UTF-8"?><svg id="Calque_2" xmlns="http://www.w3.org/2000/svg" viewBox="0 0 169.01 246.76"><g id="Calque_1-2"><g id="_3_diamond"><g id="base"><path d="M1.25,238.04c0,3.78,3.09,6.87,6.87,6.87h152.79c3.77,0,6.86-3.09,6.86-6.87V9.72c0-3.78-3.09-6.87-6.86-6.87H8.12c-3.78,0-6.87,3.09-6.87,6.87v228.32Z" fill="#fff" stroke="#000" stroke-miterlimit="4" stroke-width="2.5"/></g><g id="n_3"><text transform="translate(5.25 38.99) scale(.53 1)" fill="#e6180a" font-family="Arial-BoldMT, Arial" font-size="45.45" font-weight="700" isolation="isolate"><tspan x="0" y="0">3</tspan></text></g><g id="n_3-2"><text transform="translate(164.76 207.77) rotate(-180) scale(.53 1)" fill="#e6180a" font-family="Arial-BoldMT, Arial" font-size="45.45" font-weight="700" isolation="isolate"><tspan x="0" y="0">3</tspan></text></g><g id="diamond"><path d="M14.89,52.99h7.68c-.87-.04-1.62-.6-2.32-1.07-1.58-1.19-3.06-2.56-4.22-4.15-.54-.8-1.12-1.71-1.13-2.71M22.57,52.99c-1.11.03-2.06.74-2.9,1.39-1.49,1.25-2.79,2.75-3.88,4.36-.4.67-.87,1.38-.89,2.18v-7.94M14.89,60.93c-.04-1.18-.76-2.21-1.44-3.12-1.21-1.51-2.65-2.84-4.23-3.96-.61-.38-1.27-.84-2.01-.86h7.68M7.22,52.99c1.11-.03,2.06-.74,2.9-1.39,1.49-1.26,2.79-2.75,3.88-4.36.4-.67.87-1.38.89-2.18v7.94" fill="#e6180a"/></g><g id="diamond-2"><path d="M155.12,193.77h-7.68c.87.04,1.62.6,2.32,1.07,1.58,1.19,3.06,2.56,4.22,4.15.54.8,1.12,1.71,1.13,2.71M147.44,193.77c1.11-.03,2.06-.74,2.9-1.39,1.49-1.25,2.79-2.75,3.88-4.36.4-.67.87-1.38.89-2.18v7.94M155.12,185.84c.04,1.18.76,2.21,1.44,3.12,1.21,1.51,2.65,2.84,4.23,3.96.61.38,1.27.84,2.01.86h-7.68M162.79,193.77c-1.11.03-2.06.74-2.9,1.39-1.49,1.26-2.79,2.75-3.88,4.36-.4.67-.87,1.38-.89,2.18v-7.94" fill="#e6180a"/></g><g id="diamond-3"><path d="M85.01,203.01h-18.43c2.1.09,3.88,1.45,5.57,2.57,3.79,2.86,7.34,6.13,10.14,9.97,1.31,1.93,2.68,4.1,2.72,6.51M66.58,203.01c2.66-.08,4.94-1.78,6.97-3.34,3.59-3.01,6.69-6.59,9.31-10.47.96-1.61,2.09-3.31,2.15-5.24v19.05M85.01,183.96c.09,2.84,1.82,5.29,3.45,7.49,2.91,3.62,6.35,6.83,10.14,9.51,1.47.92,3.04,2.01,4.83,2.06h-18.43M103.43,203.01c-2.66.08-4.94,1.78-6.97,3.34-3.59,3.01-6.69,6.6-9.31,10.47-.96,1.61-2.09,3.31-2.15,5.24v-19.05" fill="#e6180a"/></g><g id="diamond-4"><path d="M85.01,116.51h18.43c-2.1-.09-3.88-1.45-5.57-2.57-3.79-2.86-7.34-6.13-10.14-9.97-1.31-1.93-2.68-4.1-2.72-6.51M103.43,116.51c-2.66.08-4.94,1.78-6.97,3.34-3.59,3.01-6.69,6.59-9.31,10.47-.96,1.61-2.09,3.31-2.15,5.24v-19.05M85.01,135.56c-.09-2.84-1.82-5.29-3.45-7.49-2.91-3.62-6.35-6.83-10.14-9.51-1.47-.92-3.04-2.01-4.83-2.06h18.43M66.58,116.51c2.66-.08,4.94-1.78,6.97-3.34,3.59-3.01,6.69-6.6,9.31-10.47.96-1.61,2.09-3.31,2.15-5.24v19.05" fill="#e6180a"/></g><g id="diamond-5"><path d="M85.01,39.6h18.43c-2.1-.09-3.88-1.45-5.57-2.57-3.79-2.86-7.34-6.13-10.14-9.97-1.31-1.93-2.68-4.1-2.72-6.51M103.43,39.6c-2.66.08-4.94,1.78-6.97,3.34-3.59,3.01-6.69,6.59-9.31,10.47-.96,1.61-2.09,3.31-2.15,5.24v-19.05M85.01,58.65c-.09-2.84-1.82-5.29-3.45-7.49-2.91-3.62-6.35-6.83-10.14-9.51-1.47-.92-3.04-2.01-4.83-2.06h18.43M66.58,39.6c2.66-.08,4.94-1.78,6.97-3.34,3.59-3.01,6.69-6.6,9.31-10.47.96-1.61,2.09-3.31,2.15-5.24v19.05" fill="#e6180a"/></g></g></g></svg>