<?xml version="1.0" encoding="UTF-8"?><svg id="Calque_2" xmlns="http://www.w3.org/2000/svg" viewBox="0 0 169.01 246.76"><g id="Calque_1-2"><g id="_4_club"><g id="base"><path d="M1.25,238.04c0,3.78,3.09,6.87,6.87,6.87h152.79c3.77,0,6.86-3.09,6.86-6.87V9.72c0-3.78-3.09-6.87-6.86-6.87H8.12c-3.78,0-6.87,3.09-6.87,6.87v228.32Z" fill="#fff" stroke="#000" stroke-miterlimit="4" stroke-width="2.5"/></g><g id="n_4"><text transform="translate(5.25 38.99) scale(.53 1)" font-family="Arial-BoldMT, Arial" font-size="45.45" font-weight="700" isolation="isolate"><tspan x="0" y="0">4</tspan></text></g><g id="n_4-2"><text transform="translate(164.76 207.77) rotate(-180) scale(.53 1)" font-family="Arial-BoldMT, Arial" font-size="45.45" font-weight="700" isolation="isolate"><tspan x="0" y="0">4</tspan></text></g><g id="club"><path d="M11.55,48.33c0,1.81,1.51,3.28,3.38,3.28s3.38-1.47,3.38-3.28-1.51-3.28-3.38-3.28-3.38,1.47-3.38,3.28Z"/><path d="M7.19,54.54c0,1.81,1.51,3.28,3.38,3.28s3.38-1.47,3.38-3.28-1.51-3.28-3.38-3.28-3.38,1.47-3.38,3.28Z"/><path d="M15.84,54.56c0,.66.2,1.28.55,1.8.6.89,1.65,1.48,2.83,1.48,1.87,0,3.38-1.47,3.38-3.28s-1.51-3.28-3.38-3.28-3.38,1.47-3.38,3.28Z"/><path d="M10.96,60.93c1.67,0,2.55-1.36,3.01-2.72.46-1.36.5-2.72.5-2.72h.86s.16,5.43,3.5,5.44h-7.87Z"/><path d="M17.21,50.74c-1.9,1.9-1.9,4.75-1.9,4.75h-.85s0-2.9-1.85-4.75"/><path d="M16.83,56.84c-1.9-1.9-4.75-1.9-4.75-1.9v-.85s2.91,0,4.76-1.85"/><path d="M13.03,56.85c1.9-1.9,4.75-1.9,4.75-1.9v-.85s-2.91,0-4.76-1.85"/></g><g id="club-2"><path d="M158.47,198.43c0-1.81-1.51-3.28-3.38-3.28s-3.38,1.47-3.38,3.28,1.51,3.28,3.38,3.28,3.38-1.47,3.38-3.28Z"/><path d="M162.82,192.22c0-1.81-1.51-3.28-3.38-3.28s-3.38,1.47-3.38,3.28,1.51,3.28,3.38,3.28,3.38-1.47,3.38-3.28Z"/><path d="M154.17,192.2c0-.66-.2-1.28-.55-1.8-.6-.89-1.65-1.48-2.83-1.48-1.87,0-3.38,1.47-3.38,3.28s1.51,3.28,3.38,3.28,3.38-1.47,3.38-3.28Z"/><path d="M159.06,185.84c-1.67,0-2.55,1.36-3.01,2.72-.46,1.36-.5,2.72-.5,2.72h-.86s-.16-5.43-3.5-5.44h7.87Z"/><path d="M152.8,196.02c1.9-1.9,1.9-4.75,1.9-4.75h.85s0,2.9,1.85,4.75"/><path d="M153.18,189.93c1.9,1.9,4.75,1.9,4.75,1.9v.85s-2.91,0-4.76,1.85"/><path d="M156.99,189.92c-1.9,1.9-4.75,1.9-4.75,1.9v.85s2.91,0,4.76,1.85"/></g><g id="club-3"><path d="M37.05,28.42c0,4.34,3.62,7.87,8.11,7.87s8.11-3.53,8.11-7.87-3.62-7.87-8.11-7.87-8.11,3.53-8.11,7.87Z"/><path d="M26.59,43.32c0,4.34,3.62,7.87,8.11,7.87s8.11-3.53,8.11-7.87-3.62-7.87-8.11-7.87-8.11,3.53-8.11,7.87Z"/><path d="M47.37,43.37c0,1.58.48,3.07,1.32,4.32,1.44,2.14,3.96,3.55,6.79,3.55,4.49,0,8.11-3.53,8.11-7.87s-3.62-7.87-8.11-7.87-8.11,3.53-8.11,7.87Z"/><path d="M35.64,58.65c4.01,0,6.12-3.26,7.22-6.53,1.1-3.26,1.2-6.53,1.2-6.53h2.06s.38,13.03,8.4,13.05h-18.88Z"/><path d="M50.66,34.2c-4.56,4.56-4.56,11.4-4.56,11.4l-2.04.02s0-6.98-4.44-11.42"/><path d="M49.75,48.84c-4.56-4.56-11.4-4.56-11.4-4.56v-2.04s6.98,0,11.42-4.44"/><path d="M40.61,48.86c4.56-4.56,11.4-4.56,11.4-4.56v-2.04s-6.98,0-11.42-4.44"/></g><g id="club-4"><path d="M53.13,214.19c0-4.34-3.62-7.87-8.11-7.87s-8.11,3.53-8.11,7.87,3.62,7.87,8.11,7.87,8.11-3.53,8.11-7.87Z"/><path d="M63.59,199.29c0-4.34-3.62-7.87-8.11-7.87s-8.11,3.53-8.11,7.87,3.62,7.87,8.11,7.87,8.11-3.53,8.11-7.87Z"/><path d="M42.81,199.25c0-1.58-.48-3.07-1.32-4.32-1.44-2.14-3.96-3.55-6.79-3.55-4.49,0-8.11,3.53-8.11,7.87s3.62,7.87,8.11,7.87,8.11-3.53,8.11-7.87Z"/><path d="M54.54,183.96c-4.01,0-6.12,3.26-7.22,6.53-1.1,3.26-1.2,6.53-1.2,6.53h-2.06s-.38-13.03-8.4-13.05h18.88Z"/><path d="M39.53,208.41c4.56-4.56,4.56-11.4,4.56-11.4l2.04-.02s0,6.98,4.44,11.42"/><path d="M40.44,193.78c4.56,4.56,11.4,4.56,11.4,4.56v2.04s-6.98,0-11.42,4.44"/><path d="M49.58,193.75c-4.56,4.56-11.4,4.56-11.4,4.56v2.04s6.98,0,11.42,4.44"/></g><g id="club-5"><path d="M116.88,28.42c0,4.34,3.62,7.87,8.11,7.87s8.11-3.53,8.11-7.87-3.62-7.87-8.11-7.87-8.11,3.53-8.11,7.87Z"/><path d="M106.42,43.32c0,4.34,3.62,7.87,8.11,7.87s8.11-3.53,8.11-7.87-3.62-7.87-8.11-7.87-8.11,3.53-8.11,7.87Z"/><path d="M127.2,43.37c0,1.58.48,3.07,1.32,4.32,1.44,2.14,3.96,3.55,6.79,3.55,4.49,0,8.11-3.53,8.11-7.87s-3.62-7.87-8.11-7.87-8.11,3.53-8.11,7.87Z"/><path d="M115.47,58.65c4.01,0,6.12-3.26,7.22-6.53,1.1-3.26,1.2-6.53,1.2-6.53h2.06s.38,13.03,8.4,13.05h-18.88Z"/><path d="M130.49,34.2c-4.56,4.56-4.56,11.4-4.56,11.4l-2.04.02s0-6.98-4.44-11.42"/><path d="M129.57,48.84c-4.56-4.56-11.4-4.56-11.4-4.56v-2.04s6.98,0,11.42-4.44"/><path d="M120.43,48.86c4.56-4.56,11.4-4.56,11.4-4.56v-2.04s-6.98,0-11.42-4.44"/></g><g id="club-6"><path d="M132.96,214.19c0-4.34-3.62-7.87-8.11-7.87s-8.11,3.53-8.11,7.87,3.62,7.87,8.11,7.87,8.11-3.53,8.11-7.87Z"/><path d="M143.42,199.29c0-4.34-3.62-7.87-8.11-7.87s-8.11,3.53-8.11,7.87,3.62,7.87,8.11,7.87,8.11-3.53,8.11-7.87Z"/><path d="M122.64,199.25c0-1.58-.48-3.07-1.32-4.32-1.44-2.14-3.96-3.55-6.79-3.55-4.49,0-8.11,3.53-8.11,7.87s3.62,7.87,8.11,7.87,8.11-3.53,8.11-7.87Z"/><path d="M134.37,183.96c-4.01,0-6.12,3.26-7.22,6.53-1.1,3.26-1.2,6.53-1.2,6.53h-2.06s-.38-13.03-8.4-13.05h18.88Z"/><path d="M119.35,208.41c4.56-4.56,4.56-11.4,4.56-11.4l2.04-.02s0,6.98,4.44,11.42"/><path d="M120.27,193.78c4.56,4.56,11.4,4.56,11.4,4.56v2.04s-6.98,0-11.42,4.44"/><path d="M129.41,193.75c-4.56,4.56-11.4,4.56-11.4,4.56v2.04s6.98,0,11.42,4.44"/></g></g></g></svg>