<?xml version="1.0" encoding="UTF-8"?><svg id="Calque_2" xmlns="http://www.w3.org/2000/svg" viewBox="0 0 169.01 246.76"><g id="Calque_1-2"><g id="_4_spade"><g id="base"><path d="M1.25,238.04c0,3.78,3.09,6.87,6.87,6.87h152.79c3.77,0,6.86-3.09,6.86-6.87V9.72c0-3.78-3.09-6.87-6.86-6.87H8.12c-3.78,0-6.87,3.09-6.87,6.87v228.32Z" fill="#fff" stroke="#000" stroke-miterlimit="4" stroke-width="2.5"/></g><g id="n_4"><text transform="translate(5.25 38.99) scale(.53 1)" font-family="Arial-BoldMT, Arial" font-size="45.45" font-weight="700" isolation="isolate"><tspan x="0" y="0">4</tspan></text></g><g id="n_4-2"><text transform="translate(164.76 207.77) rotate(-180) scale(.53 1)" font-family="Arial-BoldMT, Arial" font-size="45.45" font-weight="700" isolation="isolate"><tspan x="0" y="0">4</tspan></text></g><g id="spade"><path d="M10.98,60.91c1.67,0,2.55-1.78,3.01-3.56.46-1.78.5-3.56.5-3.56h.85s.16,7.12,3.5,7.12c0,0-7.86,0-7.86,0Z"/><path d="M8.15,53.79c0-3.47,5.22-5.99,6.75-8.73,1.53,2.75,6.74,5.27,6.75,8.73,0,1.64-1.51,2.97-3.38,2.97s-3.37-1.33-3.37-2.97c0,1.64-1.51,2.97-3.38,2.97s-3.37-1.33-3.37-2.97Z"/></g><g id="spade-2"><path d="M159.04,185.85c-1.67,0-2.55,1.78-3.01,3.56-.46,1.78-.5,3.56-.5,3.56h-.85s-.16-7.12-3.5-7.12c0,0,7.86,0,7.86,0Z"/><path d="M161.86,192.97c0,3.47-5.22,5.99-6.75,8.73-1.53-2.75-6.74-5.27-6.75-8.73,0-1.64,1.51-2.97,3.38-2.97s3.37,1.33,3.37,2.97c0-1.64,1.51-2.97,3.38-2.97s3.37,1.33,3.37,2.97Z"/></g><g id="spade-3"><path d="M35.69,58.62c4.01,0,6.12-4.27,7.22-8.54,1.1-4.27,1.2-8.54,1.2-8.54l2.04-.02s.38,17.11,8.4,17.11c0,0-18.86,0-18.86,0Z"/><path d="M28.9,41.52c.02-8.32,12.52-14.37,16.19-20.94,3.67,6.6,16.17,12.64,16.19,20.94,0,3.93-3.62,7.13-8.11,7.13s-8.08-3.19-8.08-7.13c0,3.93-3.62,7.13-8.11,7.13s-8.08-3.19-8.08-7.13Z"/></g><g id="spade-4"><path d="M54.5,183.99c-4.01,0-6.12,4.27-7.22,8.54-1.1,4.27-1.2,8.54-1.2,8.54l-2.04.02s-.38-17.11-8.4-17.11c0,0,18.86,0,18.86,0Z"/><path d="M61.29,201.09c-.02,8.32-12.52,14.37-16.19,20.94-3.67-6.6-16.17-12.64-16.19-20.94,0-3.93,3.62-7.13,8.11-7.13s8.08,3.19,8.08,7.13c0-3.93,3.62-7.13,8.11-7.13s8.08,3.19,8.08,7.13Z"/></g><g id="spade-5"><path d="M115.51,58.62c4.01,0,6.12-4.27,7.22-8.54,1.1-4.27,1.2-8.54,1.2-8.54l2.04-.02s.38,17.11,8.4,17.11c0,0-18.86,0-18.86,0Z"/><path d="M108.73,41.52c.02-8.32,12.52-14.37,16.19-20.94,3.67,6.6,16.17,12.64,16.19,20.94,0,3.93-3.62,7.13-8.11,7.13s-8.08-3.19-8.08-7.13c0,3.93-3.62,7.13-8.11,7.13s-8.08-3.19-8.08-7.13Z"/></g><g id="spade-6"><path d="M134.32,183.99c-4.01,0-6.12,4.27-7.22,8.54-1.1,4.27-1.2,8.54-1.2,8.54l-2.04.02s-.38-17.11-8.4-17.11c0,0,18.86,0,18.86,0Z"/><path d="M141.11,201.09c-.02,8.32-12.52,14.37-16.19,20.94-3.67-6.6-16.17-12.64-16.19-20.94,0-3.93,3.62-7.13,8.11-7.13s8.08,3.19,8.08,7.13c0-3.93,3.62-7.13,8.11-7.13s8.08,3.19,8.08,7.13Z"/></g></g></g></svg>