<?xml version="1.0" encoding="UTF-8"?><svg id="Calque_2" xmlns="http://www.w3.org/2000/svg" viewBox="0 0 169.01 246.76"><g id="Calque_1-2"><g id="_5_heart"><g id="base"><path d="M1.25,238.04c0,3.78,3.09,6.87,6.87,6.87h152.79c3.77,0,6.86-3.09,6.86-6.87V9.72c0-3.78-3.09-6.87-6.86-6.87H8.12c-3.78,0-6.87,3.09-6.87,6.87v228.32Z" fill="#fff" stroke="#000" stroke-miterlimit="4" stroke-width="2.5"/></g><g id="n_5"><text transform="translate(5.25 38.99) scale(.53 1)" fill="#e6180a" font-family="Arial-BoldMT, Arial" font-size="45.45" font-weight="700" isolation="isolate"><tspan x="0" y="0">5</tspan></text></g><g id="n_5-2"><text transform="translate(164.76 207.77) rotate(-180) scale(.53 1)" fill="#e6180a" font-family="Arial-BoldMT, Arial" font-size="45.45" font-weight="700" isolation="isolate"><tspan x="0" y="0">5</tspan></text></g><g id="heart"><path d="M22.56,49.06c0,4.71-5.91,8.14-7.64,11.87-1.75-3.72-7.66-7.12-7.7-11.83,0-2.22,1.71-4.03,3.82-4.03,2.12,0,3.85,1.79,3.85,4.01,0-2.23,1.71-4.03,3.82-4.03,2.12,0,3.84,1.79,3.85,4.01Z" fill="#e6180a"/></g><g id="heart-2"><path d="M147.45,197.7c0-4.71,5.91-8.14,7.64-11.87,1.75,3.72,7.66,7.12,7.7,11.83,0,2.22-1.71,4.03-3.82,4.03-2.12,0-3.85-1.79-3.85-4.01,0,2.23-1.71,4.03-3.82,4.03-2.12,0-3.84-1.79-3.85-4.01Z" fill="#e6180a"/></g><g id="heart-3"><path d="M63.49,30.17c-.02,11.3-14.18,19.53-18.33,28.48-4.2-8.92-18.38-17.08-18.47-28.38-.02-5.33,4.1-9.67,9.16-9.67,5.09,0,9.24,4.29,9.24,9.62,0-5.35,4.1-9.67,9.16-9.67,5.09-.02,9.21,4.29,9.24,9.62Z" fill="#e6180a"/></g><g id="heart-4"><path d="M26.69,212.44c.02-11.3,14.18-19.53,18.33-28.48,4.2,8.92,18.38,17.08,18.47,28.38.02,5.33-4.1,9.67-9.16,9.67-5.09,0-9.24-4.29-9.24-9.62,0,5.35-4.1,9.67-9.16,9.67-5.09.02-9.21-4.29-9.24-9.62Z" fill="#e6180a"/></g><g id="heart-5"><path d="M143.32,30.17c-.02,11.3-14.18,19.53-18.33,28.48-4.2-8.92-18.38-17.08-18.47-28.38-.02-5.33,4.1-9.67,9.16-9.67,5.09,0,9.24,4.29,9.24,9.62,0-5.35,4.1-9.67,9.16-9.67,5.09-.02,9.21,4.29,9.24,9.62Z" fill="#e6180a"/></g><g id="heart-6"><path d="M106.52,212.44c.02-11.3,14.18-19.53,18.33-28.48,4.2,8.92,18.38,17.08,18.47,28.38.02,5.33-4.1,9.67-9.16,9.67-5.09,0-9.24-4.29-9.24-9.62,0,5.35-4.1,9.67-9.16,9.67-5.09.02-9.21-4.29-9.24-9.62Z" fill="#e6180a"/></g><g id="heart-7"><path d="M103.41,107.09c-.02,11.3-14.18,19.53-18.33,28.48-4.2-8.92-18.38-17.08-18.47-28.38-.02-5.33,4.1-9.67,9.16-9.67,5.09,0,9.24,4.29,9.24,9.62,0-5.35,4.1-9.67,9.16-9.67,5.09-.02,9.21,4.29,9.24,9.62Z" fill="#e6180a"/></g></g></g></svg>