<?xml version="1.0" encoding="UTF-8"?><svg id="Calque_2" xmlns="http://www.w3.org/2000/svg" viewBox="0 0 169.01 244.55"><g id="Calque_1-2"><g id="red_joker"><g id="base"><path d="M1.25,236.43c0,3.78,3.09,6.87,6.87,6.87h152.79c3.77,0,6.86-3.09,6.86-6.87V8.12c0-3.78-3.09-6.87-6.86-6.87H8.12c-3.78,0-6.87,3.09-6.87,6.87v228.32Z" fill="#fff" stroke="#000" stroke-miterlimit="4" stroke-width="2.5"/></g><g id="Full_joker"><g id="joker"><path d="M102.05,200.52l-.75,1.45.77,5.03,2.02-.35,3.99-2.7-4.44-4.22" fill="#e6180a"/><path d="M117.33,66.99c.28.11-6.41,6.42-7.26,6.42l-5.68,3.16-3.38,5-2.54,5.63-.16,6.24,2.37,3.36,5.03,1.03,6.29-1.1,6.9-4.39,3.49-4.53,1.32-4.42-.47-2.95-3.13-1.51-2.67-.25-.19-1.13.48-2.7-2.29-1.83-4.18.28,6.79-6.14,7.04,1.78,3.32-.6,9.45,11.6-5.06,6.97-.78,3.01,1.05,4.24,1.58,4.35-.77,4.7-1.19,1.68.14,3.72-.74,1.89-2.56,1.09-2.38-1.02-1.47-2.56.74-2.98,2-1.12,1.79-.03.32-.53-1.4-3.61-3.19-2.35-2.6-.14-6.31,4.28-.7,3.68-.07,6.17,6.1,4.03,2.77,4.45.88,5.19.7,6.45,5.78,14.37,2.03,3.65-.77.63-4.73-2.21-4.28-4.42-.25-3.36.81-2.63-1.12-1.96-1.89.03-1.19,1.89.17,1.54,1.54,2.52-.7,3.89-2.8,5.19-1.47.03-2.91-4.14-1.61-5.5,1.51-3.58-.03-1.44-2.56-2.07-1.96.63-1.44,2.21,1.47,4.8-1.58,2.84-5.93,5.01-1.09-.63-1.37-3.58-.35-5.33,3.23-2.52.25-2.8-1.82-1.58-2,.31-2,1.44-.14,2.63.03,3.16-3.96,5.08-4.38,3.33-1.82-.49-.77-2.31-.14-9.68,3.86-2.03,1.12-2.21-1.23-1.96-2.52-.77-2.21,1.4-.98,2.31.74,3.16-1.61,1.79-2.38,2-6.21,2.94-2.74.42.03-4,2.17-6.91,1.82-2.63,4.14-1.23,1.33-2.56-.74-2-2.66-1.19-2.42,1.37-.84,1.61-.45,2.38-3.3,2.28-8.59,2.63-1.23-1.16,2.56-7.4,3.36-3.33,3.96-.56,1.61-2.77-.77-2.63-2.38-1.05-2.24,1.09-1.79,3.93-3.33,2.18-8.03,1.47.91-3.5,1.93-3.58,1.37-1.19,2.24-2.49,3.68-.31,1.47-1.54.49-1.37-.17-1.4-2-1.3-3.3.98-1.72.11-3.26-3.16-1.23-2.03.77-.39,4.24.11,4.87-1.3,9.57-4.42,4.17-.81,4.24.88,3.22,1.93-.07-2.07,1.33-1.72,4.21-.81.21-.53.14-3.08,2.28-1.96,1.72-6.07,3.44-5.33.03-1.61-2.21-4.66.07-4.94.98-2.77,1.93-2.66,4.52-1.96,1.82-2.73,1.89-.88,2.31.63,1.47,2.35-.74,3.37-2.8,1.19-3.22-1.3-.63.25-.46,3.58.91,3.08,2,1.19,7.36-1.86" fill="#e6180a"/><polygon points="117.55 66.93 117.95 67.41 111.12 73.51 110.71 73.04 117.55 66.93" fill="#e6180a"/><path d="M52.49,105.33l3.1.7,2.18,3.71-2.4,11.57-6.24,11.61-9.56,9.82h-8.42l-1.35-1.83,10.74-9.69,8.6-14.05" fill="#e6180a"/><path d="M107.39,149.77l1.35-1.01,3.87-.95,1.24,1.12,2.08,7.86.73,4.26-.56,7.97-3.2,12.96-2.36,5.72-3.81,4.94-4.66,3.2.34-2.24,1.35-2.19,2.58-4.27,2.3-6.79,2.08-9.15.73-6.51-1.01-7.3-2.92-5.22" fill="#e6180a"/><path d="M85.97,162.29l.89-.88,2.77-.28,2.18-.79.34-.39,1.15.29.53-.74.8.37.61-.14,1.4-.38,3.35-6.51,1.56-3.8,1.15.56,1.37-.41,9.21-2.82.6,1.26-1.78.12-3.28.87-1.93,1.29.39,2.1-1.23.57-2.52,3.63.31,1.17,2.3-.53,1.24-2.51-.41-1.38.68-.17,2.51,4.59-.57,5.32,1.61,2.8-.93,6.98-1,4.46-1.19,4.68-1.99,5.66-3.19,5.36-.38-2.38,1.92-4.87-.92-8.7.17-8.11-1.89-.61-1.1,1.88.24,18.09,1.02,2.69.38,2.62-.74,3.2,1.28,3.3-.9,1.08-.87,2.11,1.43,3.86.79-.03,4.93-2.99.96,2.56-2.37,2.93-3.88.82-2.38-3.5-.4-4.88.02-1.75-1.35-.85-.14-3.6-2.65-7.26-.73-7.57-.1-7.42.09-4.71-5.52.29-.48.87-1.4-.82-2.5.72-1.92-.06-2.17,1.23-3.89.92-3.63.48,1.44-1.63,7.63-1.5,2.63-1.6.84-3.99"/><rect x="106.72" y="151.99" width=".94" height=".9"/><rect x="101.93" y="190.6" width=".92" height="2.51"/><polygon points="109 157.93 110.41 157.76 111.2 165.04 109.8 165.21 109 157.93"/><path d="M114.48,147.72c0,.25,1.94,4.32,1.94,4.32l1.24,6.26.15,8.45-1.94,12.12-.5,1.19.45.25.5-.35,5.71-12.07,2.28-9.79.5-5.27.89.35-.65,7.65-2.93,10.48-4.92,10.18-5.42,7.2-2.48,1.94-.2-1.04,3.13-5.71,3.68-14.01.7-8.25-1.59-9.19-1.54-4.72"/><path d="M78,44.03l3.92.34,2.16,4.9-1.65,3.57-5.42-.67-.87-5.05" fill="#e6180a"/><path d="M90.21,39.11l3.22-1.57,1.28.45.46,1.66v1.56s-.91,2.63-.91,2.63l-3.18,2.86-5.57,1.27-.4-1.54,1.98-.62,2.72-2.66" fill="#e6180a"/><path d="M51.84,41.31c0,1.24-.94,2.24-2.11,2.24s-2.11-1-2.11-2.24.94-2.24,2.11-2.24,2.11,1,2.11,2.24Z" fill="#ff009c"/><path d="M56.77,52.66c0,1.15-.98,2.08-2.19,2.08-1.21,0-2.2-.93-2.2-2.08h0c0-1.15.98-2.08,2.19-2.08,1.21,0,2.2.93,2.2,2.08h0Z" fill="#00ff0a"/><path d="M67.78,69.63c0,1.2-1.06,2.17-2.38,2.17-1.32,0-2.38-.97-2.38-2.17h0c0-1.2,1.06-2.17,2.38-2.17,1.32,0,2.38.97,2.38,2.17h0Z" fill="#ff9e00"/><path d="M76.61,75.46c0,1.32-1.04,2.39-2.33,2.39s-2.33-1.07-2.33-2.39,1.04-2.39,2.33-2.39,2.33,1.07,2.33,2.39Z" fill="#0072ff"/><path d="M85.92,78.4c0,1.45-1.06,2.63-2.36,2.63-1.31,0-2.36-1.18-2.37-2.63,0,0,0,0,0,0,0-1.45,1.06-2.63,2.36-2.63,1.31,0,2.36,1.18,2.37,2.63h0Z" fill="#ff0"/><path d="M61.5,62.46c.34.56.03,1.37-.7,1.81s-1.6.35-1.94-.21-.03-1.37.7-1.81,1.6-.35,1.94.21Z" fill="#e6180a"/><path d="M67.16,58.7c0,.52-.37.95-.82.95s-.82-.42-.82-.95.37-.95.82-.95.82.42.82.95Z" fill="#e6180a"/><path d="M55.51,67.76c.15.17-.1.58-.56.91-.46.34-.94.47-1.09.3,0,0-.02-.02-.02-.03-.15-.17.1-.58.56-.91.46-.34.94-.47,1.09-.3,0,0,.02.02.02.03Z" fill="#e6180a"/><polygon points="38.07 79.18 41.93 75.59 43.74 77.4 39.88 81 38.07 79.18" fill="#e6180a"/><polygon points="30.13 85.09 35.76 80.55 37.37 82.4 31.74 86.95 30.13 85.09" fill="#e6180a"/><path d="M28.35,88.15c.28.32.16.88-.27,1.26s-1.01.43-1.29.11c-.02-.02-.03-.04-.05-.06-.28-.32-.16-.88.27-1.26s1.01-.43,1.29-.11c.02.02.03.04.05.06Z" fill="#e6180a"/><path d="M27.78,147.03l1.49-.53,2.15,1.14,1.94,1.81.02,1.92-4.15,2.16-2.08-1.38.21-4.13" fill="#e6180a"/><path d="M44.34,85.07l4.75-1.5,1.1,1.63-1.38,18.24,2.8,3.25-3.01,11.54-3.41,1.54-8.41-3.17-.41-3.41,3.21-15.68,3.9-11.05" fill="#e6180a"/><path d="M89.09,162.66l13.14-3.01,3.41-1.46,2.48-.24.65,1.19.06,5.9-1.05.99-18.55,1.46-1.9-.34-.13-2.52" fill="#e6180a"/><path d="M133.63,52.58c.28,0,2.07.28,2.31.49.25.21,1.61,1.89,1.61,1.89l-.42,3.22.21,1.37,2.59,4.52.98,5.33-.98,6.8-1.82,4.14-9.75-11.96,3.4-1.09,3.22-3.3.74-3.61-.31-.39-3.37-.42-1.96-2.91,1.37-3.08" fill="#e6180a"/><path d="M61.65,59.94c-2.42,1.88-5.06,5.24-7.92,6.35-1.14.43-3.13-2.74-4.18-.1-1.69-.48-2.96.27-3.04,2.03-1.89,0-4.27,1.44-5.33,3.05-1.06,1.62.75,3.4-.56,4.88-3.04,3.44-7.71,6.13-11.25,9.06-1.2.98-3.58,2.24-3.26,4.12.45,2.56,4.49-.81,5.32-1.52,2.42-1.98,4.9-4.27,7.56-5.9.53-.32,1.78-1.71,2.41-1.58.69.16,2.09,3.65,2.24,4.34.23,1.22-1.2,3.11-1.6,4.26-1.36,3.9-2.86,7.79-3.94,11.77-1.14,4.19-1.18,8.93-2.72,12.99-.79,2.05-2.44,3.7-3.42,5.68-1.63,3.31-2.96,7.38-3.86,10.96-.85,3.4-.95,7.46-.69,10.96.06.64.81,1.06.8,1.62-.01.61-1.14.76-1.32,1.43-.23.87.44,1.61.43,2.42-.06,3.12-1.39,6.77.49,9.74,1.41,2.1,7.1-.66,7.91-2.34.47-.88-.2-1.76-.54-2.53-1.12-2.32-2.93-3.61-4.94-5.12-.57-.44-.97-2.46-.46-3.08.46-.53,1.33-.12,1.88-.01,1.42.31,3.19.13,4.67.09,5.06-.13,9.61-.76,14.41-2.57,1.4-.53,3.9-1.15,4.67-2.5-4.34.2-8.21,3.16-12.78,2.44.07.01,3.26-3.21,3.26-3.21,1.44-1.81,6.15-7.34,7.2-9.37.75-1.42,1.48-3.84,2.68-4.95.7-.65,2.57-.38,3.5-.57,2.23-.45,4.56-1.28,6.4-2.7,1.83-1.41.89-4.33,3.74-5.04,1.58-.39,3.01.99,3.13,2.51.11,1.27-1.02,2.55-2.12,3.05-1.12.51-2.28-.08-3.45.62-2.84,1.7-4.38,5.51-5.3,8.51-.26.85-.83,2.73-.18,3.53.77.94,4.52-.28,5.48-.62,2.48-.82,5.76-1.87,7.6-3.83.63-.67.52-1.7.81-2.53.76-2.15,2.62-3.38,4.74-2.2,1.66.93,1.35,2.81.22,4.02-1.54,1.64-3.76.61-5.07,2.44-1.92,2.68-2.65,6.55-3.29,9.73-.15.76-.54,2.89.19,3.45.61.47,1.68,0,2.31-.2,2.09-.61,4.1-1.48,5.97-2.62,1.84-1.12,3.2-2.46,4.79-3.88-2.44,4.6-4.47,9.46-6.63,14.2-.77,1.68-1.44,4.74-2.8,6-1.32,1.22-4.87-1.98-6.19-2.48-.66-.25-1.96-.56-2.44.19-1.22,1.91,3.04,4.54,4.06,5.62-3.34-.14-6.81-.94-10.15-.8-1.01.04-2.71,0-3.45.76-.81.81-.11,1.61.81,1.81,2.49.55,5.38,1.02,7.91,1.27v.2c-2.12.51-4.35-.06-6.49.32-.74.13-1.86.37-2.23,1.12-.48,1.08,1.01,1.67,1.83,1.77,2.7.34,5.6.24,8.32.24v.41c-2.7.21-5.28.73-7.91,1.37-.81.2-2.68.79-1.7,1.96.69.85,2.11.76,3.12.72,2.78-.13,5.55-1.16,8.32-1.22-1.3,1.72-3.93,2.17-5.48,3.86-2.6,2.91,2.07,1.75,3.45,1.01-.76,2.24-1.91,4.33-2.84,6.49-.32.74-1.03,1.77-.91,2.64.1.69.71.41,1.01,0,.65-1.05,1.07-2.33,1.53-3.45h.2l-.41,2.03c1.83-.3,3.1-4.86,3.65-6.49h.2c-.2.76-1.95,3.68-1.1,4.22.5.34.9-.66,1.05-.98.67-1.54,1.48-3.08,2.09-4.67h.2l-1.42,4.46c2.34-.69,2.53-5.21,4.06-6.9l-2.03,5.48c1.62-.13,2.38-3.04,2.84-4.46h.2l-1.01,3.45c1.47-.24,2.07-2.37,2.44-3.65h.2l-.61,2.64c1.32-.2,1.66-1.71,2.03-2.84h.2c-.76,2.44.81,1.5,1.42-.2h.2v1.22c1.28-.2,1.62-1.54,2.03-2.64h.2l-.2,1.83c1.12-.19,1.39-1.22,1.62-2.23h.2l-.2,1.42c1.3-.1,1.7-1.3,2.03-2.44h.2l-.2,1.83c.99-.18,1.27-1.17,1.62-2.03h.2v1.22c1.22-.2,1.56-1.33,1.83-2.44h.2c-.47,2.7.98.5,1.86.12.82-.32,2.11-.21,3.01-.32,0,8.44-.68,16.34,1.99,24.55.34,1.04.95,1.99,1.22,3.04.38,1.51-.6,3.68,1.66,3.86-.14,3.38-.26,6.64,1.95,9.54,1.57,2.03,5.96-.34,6.91-2.03,1.74-3.1-1.59-5.88-3.99-7.58-.86-.59-3.09-1.94-2.57-3.34.32-.85,1.84-1.5,2.57-1.95,1.96-1.22,3.79-2.65,5.47-4.23,4.42-4.15,7.45-9.37,10.08-14.75,3.12-6.43,5.36-14.13,5.36-21.31,0-1.83-.03-3.65-.06-5.48,0-.4-.02-1.57-.71-1.42-.67.11-.44,1.51-.44,1.97.06,2.09-.14,4.12-.43,6.15-.7,5-1.65,10.15-3.63,14.81-1.34,3.25-3.45,6.29-4.67,9.54h-.2c2.64-8.31,3.11-17.65,1.38-26.18-.47-2.32-1.26-4.71-2.6-6.7-.3-.5-.64-1.42-1.26-1.62-.64-.25-2.1.46-2.71.72-2.04.9-4.14,1.67-6.17,2.53,1.82-1.56,6.33-4.58,6.27-7.3-.03-1.63-1.6-2.84-1.36-4.67.16-1.22,1.51-2.44,2.8-2.33.5.04.89.32,1.27.61,2.73,2.06-.19,3.76-.2,5.98,0,2.04,1.16,4.88,2.16,6.64.62,1.12,2.08,4.28,3.77,3.6.91-.37,1.39-1.7,1.78-2.51,1.08-2.24,2.52-4.94,2.1-7.52-.29-1.75-3.21-3.86-.22-5.28.99-.49,2.01.46,2.17,1.42.21,1.24-.84,2.44-.88,3.65-.05,3.08,2.77,5.56,4.96,7.25.73.57,5.08,3.41,5.63,1.43.25-.88-.65-2.24-1.01-3-1.26-2.56-2.59-5.05-3.61-7.71-1.3-3.42-2.8-6.7-3.44-10.35-.6-3.38-.21-7.1-1.68-10.31-1.01-2.18-2.71-3.97-4.71-5.27-1.06-.69-2.54-1.15-3.36-2.14-.61-.73.04-1.74.1-2.56.15-2.18-.65-4.26.34-6.44.36-.78,1.84-1.38,2.52-1.88,1.37-1.1,2.47-2.3,4.26-2.54,2.97-.39,5.85,3.31,6.09,5.99-.93,0-1.78.06-2.64.44-5.18,2.3.04,10.98,4.83,6.69,1.87-1.69.36-3.38.6-5.31.1-.79.82-1.35,1.16-2.03.63-1.27.93-3.25.85-4.67-.23-3.08-2.63-5.81-2.51-8.93.15-3.84,5.11-7.38,6.78-10.76,2.3-4.73,2.67-10.88.74-15.83-.58-1.48-1.9-2.64-2.42-4.05-.28-.71.46-1.51.51-2.24.16-2.59-1.4-5.04-4.24-4.79-2.94.26-4.96,3.84-3.3,6.41,1.07,1.69,3.05,2.17,4.92,1.83-.05,5.7-6.44,8.79-11.57,8.03-2.94-.43-5.21-2.07-8.32-1.93-2.27.1-4.31.92-6.49,1.41-.72.13-1.85.61-2.54.2-2.76-1.54-1.56-4.82-1.31-7.1,1.62,1.14,3.53,2.03,5.48.88,2.89-1.7,2.3-6.68-1.01-7.49-1.55-.38-3.38.24-4.33,1.54-.44.6-.46,1.56-1.05,2.03-1.15.93-3.04,1.05-4.32,2.06-2.71,2.15-3.6,6.46-3.25,9.7.14,1.34.57,2.85,1.18,4.06.46.92,1.39,1.68.97,2.81-.81,2.14-2.67,4.04-3.65,6.16-.78,1.62-.65,3.68-1.47,5.2-.4.75-1.34,1.1-1.88,1.75-.88,1.08-.71,2.49-.47,3.77-2.84-.67-6.42,1.37-5.68,4.46-1.23-.85-2.8-2.03-4.26-2.41-6.21-1.45-12.8,3.68-18.48,5.46-1.35.42-3.04.86-4.45.81-1.01-.05-2.49-.57-3.39,0-1.54,1.01.75,2.39,1.16,3.15.46.83-.89.53-1.22.38-1.22-.57-4.46-2-5.07-3.19-.44-.92,0-2.94,0-3.99-.08-4.16.97-8.26,1.02-12.38,0-1.26.28-2.61.18-3.86-.06-.74-.5-1.47-.14-2.2.52-1.05,1.54-1.86,2.12-2.91.8-1.44,1.06-3.09,2.24-4.3,1.28-1.34,3.79-2.55,4.67-4.24.4-.75-.34-1.45-.02-2.14.27-.63,1.57-1.18,2.11-1.56,1.83-1.26,3.53-2.64,5.27-4.01.6-.47,1.51-1.91,2.34-1.09,1.6,1.58.59,7.46-1.58,8.25-1.16.41-2.3-1.26-3.79-.61-1.07.42-1.62,1.53-1.62,2.64-.06,3.93,6.39,3.28,5.28-.61,4.81-1.31,3.81-7.5,4.91-11.16.42-1.4,1.96-2.4,2.19-3.65.87-.26,1.67-1.48,2.48-.36.76,1.08-.11,4.62-.05,6.04.17,3.5,1.22,6.7-.12,10.15-.3.77-.58,2.03-1.34,2.46-.54.57-2.25.24-3.33.74-2.01,1.43-1.55,6,2.45,4.59,2.16-.76.99-2.22,2.03-3.57,1.07-1.41,2.79-2.28,3.77-3.81,2.22-3.44,1.08-7.5.41-11.16-.2-1.07-.68-5.23,1.21-5.23.71,0,1.02,1.05,1.22,1.58.67,1.83,1.34,3.6,1.75,5.48.9,4.13,1.4,9.87-1.2,13.6-.86,1.22-2.7.63-3.38,2.24-.68,1.76.13,3.72,2.03,4.15,2.03.46,3.53-1.21,3.44-3.14-.03-.71-.61-1.57-.25-2.23.57-1.06,1.65-1.74,2.21-2.84,1.8-3.57,2.07-8.63.75-12.38-1.08-2.96-5.95-6.49-4.95-9.74.83-2.69,3.99-2.21,6.11-3.33,4.79-2.52,5.92-5.99,4.27-10.64-.12-.81.88-1.6.39-2.44-.44-.75-1.41-.64-1.87,0-.91,1.29.75,2.2-.9,3.46-1.02.79-2.36.5-3.52.92-.54.19-.92.79-1.47.89-.87.18-1.65-.5-2.48.18-1.33,1.02-.92,3.99-3.35,4.26-3.77.34-3.47-2.56-5.37-4.87-1.48-1.8-3.76-2.88-5.99-3.4-3.32-.78-7.06.12-9.14,3.03-1.21,1.69-1.76,5.81-4.46,5.71-1.05-.04-3.72-.87-4.13-1.94-.54-1.31.35-2.6-1.16-3.61-1.43-.93-3.56-.3-3.96,1.42-.37,1.62.33,3.41,2.15,3.61.74.08,1.51-.37,2.2-.03,1.82.97,3.22,2.64,5.51,2.21,2.99-.56,3.86-4.57,6.09-6.34,2.75-2.17,7.83-.32,10.55,1.04.98.52,2.57,1.34,2.77,2.55.23,1.34-2.57.46-3.18.41-3.37-.48-7.31.55-9.08,3.66-1.29,2.25-.33,4.67-3.5,5.62-.87.26-2.18.67-2.94-.05-.98-.9-.57-2.49-2.14-3-1.68-.54-3.56.22-3.81,2.1-.05.41,0,.83.13,1.22,1.05,3.3,3.65.86,5.71,1.12,1.99.26,3.85.84,5.67-.6,2.29-1.81,1.83-4.58,5.08-5.73,1.35-.47,5.54-1.61,6.16.34.45,1.42-1.52,2.31-2.39,2.99-2.02,1.56-4,3.22-6,4.85-.63.55-3.68,2.91-4.53,3.56ZM85.66,46.51c2-.2,4.41-2.57,4.96-4.46.24-.81-.19-2.03.29-2.77.55-.82,2.97-1.97,3.63-.86,2.14,3.64-2.41,8.14-5.64,8.53-1.01.12-2.84.95-3.24-.43ZM49.54,39.28c2.47-.32,3.12,3.78.61,4.14-2.68.38-3.25-3.79-.61-4.14ZM84.24,42.65c-.07.62.2,1.85,1.11,1.13.37-.3-1.45-2.14-.38-3.24.61-.61,1.58-.05,2.31-.16.7-.1,1.42-.93,2.17-.64.94.37.42,2.31.06,2.93-.91,1.63-3.19,3.95-5.28,3.58-2.28-.42-1.43-2.74,0-3.6ZM87.08,41.43l.81,1.42c1.33-.81.61-2.09-.81-1.42ZM85.26,43.6c-.07.07-.39.24-.52.19-.13-.05-.31-1.48-.31-1.48,0,0,.91,1.21.84,1.28ZM79.58,44.43c2.37-.56,4.44,4.33,3.71,6.14-.63,1.53-1.64.3-2.69.56-.61.15-.81.87-1.43.99-.39.08-.84-.11-.85-.53-.02-.86,1.33-1.12.97-2.02-.38-.95-2.75-.29-2.54-1.43.24-1.34,1.93,0,2.42-.87.47-.81-1.15-2.46.42-2.84ZM54.01,50.84c2.61-.47,3.69,3.28.81,3.74-2.49.4-3.39-3.25-.81-3.74ZM133.96,149.59c-3.86-.74-8.15-3.93-9.17-7.91-.57-2.23,2.56-5.15-.97-6.59-1.72-.71-3.13,1.72-3.13,3.14,0,1.48,1.23,2.14,1.59,3.45.56,2.05-1.3,5.14-2.2,6.9-.32.61-.74,1.74-1.54,1.84-1.22.19-2.68-3.16-3.07-4.07-.61-1.41-1.68-3.5-1.53-5.07.09-.91.82-1.58,1.05-2.44.58-2.11-.2-4.26-2.33-5.04-1.5-.55-3.45.79-3.9,2.2-.77,2.26,1.3,3.77,1.02,5.68-.42,2.84-5.08,5.57-7.06,7.31h-.2c-1.78-1.58-1.62-3.86-1.91-6.09-.12-.81-.39-2.19.09-2.92,1.16-1.74,3.65-2.01,3.15-4.79-.54-2.95-4.17-3.33-5.91-1.21-1.7,2.07.11,4.19-.83,6.28-1.52,3.39-5.13,5.97-7.77,8.32,0,0-1.03,0-1.23-.21-.2-.2-.65-.72-.83-1.24-.51-1.44-.69-3.52-.52-5.04.14-1.49-.35-3.86.27-5.22.53-1.15,2.92-1.47,3.83-2.43,2.06-2.17-.52-5.69-3.14-5.29-1.98.3-3.57,2.45-3.41,4.42.08.93.81,2.07.28,2.94-2.24,3.69-8.09,5.84-12.09,6.6,0-3.65,1.16-9.9,3.96-12.52,1.49-1.39,3.79-.19,5.17-2.5,1.48-2.44-.35-5.26-3.04-5.43-1.89-.12-3.38,1.78-3.86,3.4-.15.61,0,1.42-.34,1.9-1.55,2-4.93,2.85-7.17,3.7-.85.32-4.18,1.46-4.87.57-.67-.88.59-3.08.92-3.93.91-2.34,2.16-5.19,4.56-6.43,1.78-.92,3.57.19,4.92-1.89,1.77-2.75-.5-6.84-3.91-5.67-2.64.91-2.03,3.38-3.54,4.97-2.45,2.56-6.96,2.94-10.26,2.94.38-3.04,3.51-7.81,6.12-9.41.84-.52,1.72-.02,2.6-.22,1.83-.42,3.44-2.68,2.96-4.56-.46-1.79-3.03-2.44-4.58-1.83-.62.25-1.15.96-1.83,1.03-.69.08-1.22-.77-1.64-1.17-1.14-1.07-2.97-2.06-3.23-3.71,2.94,0,5.68,0,8.5-1.01,4.56-1.67,9.11-4.83,14.03-5.44,3.34-.41,5.21,2.6,8.32,2.6-.01-.69-.28-1.56-.04-2.22.82-2.29,4.27-1.16,5.4-2.65.56-.78.16-1.81.5-2.64.43-1.1,1.65-1.47,2.17-2.44.76-1.47.7-3.35,1.38-4.87,1.04-2.36,3.18-4.67,3.88-7.1.46-1.62-1.24-3.53-1.72-5.07-1.01-3.18-.74-6.41.95-9.33,1.49-2.6,3.59-2.41,5.74-3.8,1.68-1.07,2.69-4.41,5.48-3,2.15,1.08,2.19,4.64,0,5.73-1.9.94-3.04-.87-4.67-.54-2.91.52-1.22,6.32-.07,7.65.85,1,1.95.89,3.12.67,2.47-.54,4.75-1.38,7.31-1.59,2.44-.2,4.26,1.39,6.49,1.9,4.7,1.14,12.32-.92,13.6-6.2.2-.86.61-2.23-.09-2.96-.63-.64-1.55-.4-2.35-.56-1.63-.33-2.86-1.93-2.57-3.58.5-2.84,4.31-3.77,5.94-1.42,1.16,1.68-.36,3.2.05,4.87.2.81,1.11,1.48,1.52,2.23.95,1.73,1.53,3.53,1.87,5.48.9,5.13-.44,10.15-3.37,14.41-1.64,2.39-4.52,4.47-4.99,7.51-.54,3.46,2.01,6.39,2.34,9.74.13,1.34-.09,3.21-.63,4.46-.3.67-.99,1.07-1.11,1.83-.32,2.03,1.12,3.97-1.09,5.56-2.26,1.62-5.79-.89-5.16-3.53.23-.97.97-2.07,1.94-2.39.77-.25,1.94-.13,2.43-.92.56-.9-.15-2.38-.63-3.19-1.43-2.35-3.59-4.09-6.47-3.7-1.28.17-2.26,1.17-3.25,1.92-1.01.77-2.54,1.49-3.33,2.47-1.5,1.86-.74,4.79-.74,6.82,0,.96-.74,2.13-.46,3.04.41,1.33,2.82,2.16,3.92,2.84,2.08,1.26,3.72,3.08,4.8,5.28,1.95,3.99,1.25,9.48,2.49,13.8,1.09,3.81,2.78,7.59,4.48,11.16.89,1.82,2.08,3.55,2.64,5.47ZM66.18,57.82c1.01-.3,1.33,1.48.38,1.73-1.08.28-1.41-1.42-.38-1.73ZM59.49,61.93l-.2.2.2-.2ZM60.3,62.23c1.95-.37,1.59,2-.2,2.27-1.96.3-1.23-2,.2-2.27ZM50.82,66.54c1.75-.62,2.41,4.73,1.12,4.95-1.12.19-2.4-4.48-1.12-4.95ZM49.75,73.5c-1.62-.27-2.77-4.2-2.08-5.63.8-1.66,1.82.88,1.88,1.57.07.54.17,1.08.19,1.62,0,.81,0,1.63,0,2.44ZM58.68,67.41c-.55,1.83-2.84,2.58-4,3.89-1.36,1.5-1.74,3.93-3.1,5.59-.73.95-2.53,1.4-3.06,2.2-.39.57.83.82,1.11,1.11.62.61.32,1.96-.2,2.52-.75.76-3.94,2.14-4.9,1.41-.81-.62-1.03-2.02-1.37-2.92-.23-.6-.72-1.32-.62-1.99.09-.69,1.62-2.33,2.33-2.35.6-.01.97.53,1.61.3,1.07-.38.82-1.62,1.48-2.33,1.03-1.13,2.26-.17,2.59-2.36,3.54.42,4.4-4.67,8.12-5.07ZM64.56,67.7c2.84-.82,4.38,3,1.62,3.84-2.48.75-4.1-3.11-1.62-3.84ZM55.43,67.81c-.15.84-.62.94-1.42,1.01.15-.88.57-.99,1.42-1.01ZM45.16,69.39c.65-.19.99.59,1.13,1.07.3.96,1.48,4.89.17,5.43-.65.26-1.09-.47-1.29-.96-.38-.94-1.53-5.07,0-5.53ZM43.86,76.74c-1.42-.47-2.69-3.65-1.83-5.02.81-1.27,1.62.39,1.77,1.16.06.54.06,1.08.15,1.62.1.81.06,1.46-.09,2.23ZM123.41,79.99s-1.26-.84-2.73-1.23c-1.13-.3-2.4-.19-3.16-.19.15-1.18.85-2.68.41-3.86-1.44-4.11-8.8-1.42-11.16-.04-5.71,3.36-9.54,10.51-8.61,17.09.13.91-.12,1.73.23,2.64,1.58,4.06,7.11,3.66,10.61,3.28,7.77-.85,16.77-9.54,14.41-17.69ZM73.89,73.39c2.99-.75,3.11,3.6.78,4.11-3.01.67-3.71-3.37-.78-4.11ZM109.2,82.22l-2.23,2.23c2.11-.36,4.84-1.62,5.77-3.65.93-2.1-1-5.68-3.33-5.88.53,1.91,4.39,5.48.81,6.7,0-2.51-.41-5.2-3.45-5.28.89-2.95,8.52-4.01,10.4-1.55.95,1.25-.94,3.09.24,4.06,1.69,1.4,4.98-.37,5.88,2.77.78,2.71-1.15,5.68-2.67,7.71-3.94,5.31-13.3,10.83-19.94,6.7-1.66-1.07-2.03-3.25-2.03-5.07,0-3.94,1-6.64,3.1-9.94.69-1.08,1.77-3.55,3.18-3.82.62-.13.91,1.18,1.09,1.59.67,1.57,1.46,2.94,3.18,3.45ZM41.87,76.13c.72-.13,1.17.86.98,1.43-.27.93-1.99,2.76-3.01,2.83-.64,0-1.45-.91-1.13-1.52.32-.66,2.48-2.65,3.17-2.74ZM82.82,76.26c2.68-1.05,4.11,3,1.81,3.96-2.75,1.15-4.31-2.97-1.81-3.96ZM109.47,81.61c-.14.11-.28-.01-.52-.09s-.8-.67-1.1-1.01-.95-1.28-.95-1.28c0,0,.61.2,1.2-.33.59-.54.62-1.15.62-1.15,0,0,.31.35.66,1.41.19.57.4,1.66.36,1.9-.04.24-.12.46-.27.56ZM106.69,77.09c.43-.43.67-.26.9-.17.23.08.78.4.78.4,0,0-.49-.07-1.05.44-.56.51-.59.95-.59.95,0,0-.25-.54-.28-.82-.05-.39-.18-.37.25-.8ZM31.69,86.69c-2.32-1.47,1.94-4.77,3.65-5.18,2.2-.5.65,1.93,0,2.45-.46.39-.94.76-1.42,1.12-.73.55-1.51,1.04-2.23,1.6ZM115.09,83.44l3.04,1.63,2.44,1.82c-.15-2.79-2.97-4.19-5.48-3.45ZM100.68,87.09l2.44-3.25c-1.69.11-2.85,1.56-2.44,3.25ZM47.31,84.32c3.17-.53,2.01,4.41,1.79,6.43-.37,3.19-.57,6.34-.8,9.54-.08,1.11-.59,2.37-.49,3.45.14,1.83,1.63,1.69,2.21,2.9.53,1.1.04,3.06-.17,4.2-.34,1.89-1.4,7.06-3.59,7.65-.94.27-1.94-.2-2.82-.46-2.24-.64-5.88-1.08-6.23-3.94-.21-1.69.48-3.79.72-5.48.81-5.64,2.51-11.16,4.06-16.64.84-3.02,1.64-7.04,5.31-7.64ZM113.46,85.67h-1.01c.19,2.66,3.74,4.32,6.09,4.67,0-1.32-.06-3.61-1.07-4.58-.98-.95-3.68-2.07-4-.09ZM110.62,92.17l-1.42,2.23c3.62-.56,2.23-3.84,1.22-6.09-1.01.97-.09,1.75.2,2.84-1.97-.3-3.97-2.43-5.28-3.86-.46-.53-1.01-1.9-1.83-1.9-2.29,0-1.88,4.61-.91,5.71,1.69,1.94,5.78,1.47,8.02,1.06ZM107.58,85.47c-.2,1.35,1.22,2.1,2.44,2.23-.1-1.32-1.29-1.83-2.44-2.23ZM103.52,86.28l4.67,5.28c-2.58,0-6.86-2.03-4.67-5.28ZM113.85,85.82c.18-.32.58-.71,1.15-.77.57,0,1.01.41,1.01.41,0,0-.68.18-1.16.71-.48.54-.6,1.52-.6,1.52-.57-.12-.67-1.31-.4-1.89ZM116.1,87.4c.56-.54.55-1.38.55-1.38,0,0,.63.46.93,1.3.31.85.57,1.85.27,2.15-.3.3-1.34-.19-1.99-.48-.53-.24-1.17-.89-1.17-.89,0,0,.89-.18,1.41-.69ZM27.63,88.03c1.34-.07.88,1.5-.2,1.58-1.14.12-.84-1.51.2-1.58ZM99.61,101.71c-.48.45.35,1.05.66,1.24.86.48,2.84,1.4,3.72.43.82-.9-3.76-2.26-4.38-1.67ZM90.53,102.92c1.22,5.24,7.29,7.98,11.97,9.08,1.83.45,4.94.78,6.29-.76-4.15-1.07-7.94-1.01-11.77-3.37-2.03-1.23-4.16-4.75-6.49-4.95ZM57.24,112.04c-2.94,11.65-7.94,21.2-15.12,27.32-2.38,2.04-4.89,2.93-8.01,2.93-.64,0-2.44.31-2.71-.47-.35-.93,6.53-6.59,8.68-8.87,4.63-5.01,7.96-10.73,10.27-17.05,1.22-3.29,2.42-6.6,2.44-10.15.8,0,4.77,2.21,4.45,6.27ZM57.46,115.3l1.01-6.09-2.03-3.25c1.22.33,2.2,1.68,3.45,1.83,2.03.22,4.06-2.22,6.17-.05.6.62.37,1.61,0,2.28-1.61,2.95-3.74.87-5.77,2.27-1.15.79-1.54,2.6-2.84,3.01ZM32.29,136.81c-1.13-.36,2.35-11.3,3.04-13.16.54-1.45,1.42-3.95,2.56-5.03.61-.59,2.03-.4,2.19.55.21,1.32-1.35,3.05-1.82,4.25-1.47,3.79-2.58,7.43-3.56,11.36-.28,1.11-1.28,2.39-2.41,2.03ZM87.49,129.98c2.09-.41,4.03,1.19,3.04,3.38-.54,1.22-2.76,2.45-4.06,2.7-1.11.22-1.34-1.49-1.44-2.3-.24-1.7.63-3.43,2.46-3.79ZM89.72,160.75c-.41-1.42,1.55-4.34,2.19-5.68,2.19-4.64,4.71-9.38,6.48-14.2.59-1.62-1.16-3.43-.59-5.28.49-1.68,2.61-2.84,4.25-1.97,1.68.92,1.35,2.98.22,4.2-.81.84-2.1,1.11-2.8,2.07-1.22,1.67-1.93,3.97-2.79,5.85-2.29,4.97-4.31,10.23-6.95,15.02ZM86.27,137.62l-2.78,6.9-6.15,13.8h-.2c.27-3.04,6.66-17.63,9.13-20.7ZM86.27,140.26s-4.95,16.05-7.71,17.86l4.99-11.57,2.72-6.29ZM99.87,141.48l-2.15,5.48-6.17,13.39h-.2c.71-3.99,3.52-8.29,5.21-11.97,1.01-2.2,1.76-5.03,3.31-6.9ZM96.42,142.9l-8.32,18.26h-.2c-.2-1.5,1.21-3.53,1.88-4.87,1.52-3.04,2.87-6.24,4.36-9.33.66-1.37,1.1-3.04,2.28-4.06ZM100.07,144.52c-.41,3.72-3.38,8.17-4.93,11.57-.55,1.22-1.03,3.11-2.17,3.86l4.51-10.15,2.59-5.28ZM86.27,144.93l-3.57,8.32-2.52,5.28c-.2-1.56,1.15-3.7,1.83-5.07,1.42-2.74,2.64-5.67,3.86-8.52h.41ZM100.27,146.14c.32,1.77-.54,3.09-1.25,4.67-1.24,2.78-3.3,5.94-3.83,8.93,1.76,0,2.23-1.15,2.9-2.64,1.1-2.52,2.97-5.18,3.39-7.91h-.2l-4.67,10.15h-.2c.5-3.35,2.96-7.63,4.67-10.55,0,0,1.26,1.01,1.62,1.01s1.68-.35,4.38-1.47c.36-.12,6.95-2.19,6.12-.91-.25.4-1.34.09-1.78.34,0,0-5.2.87-4.83,2.64.56,2.72,2.94,5.1,3.61,7.91,1.75,7.1-.1,14.43-1.76,21.31-.76,3.16-2.04,6.7-3.58,9.54-.85,1.58-2.61,3.36-3.03,5.07-.17.68-.56,2.18-.39,2.84.2.84.99,1.67.83,2.6-.28,1.74-1.76,2.36-1.3,4.5.1.49.28.96.47,1.42,1.25,3.04,2.84.27,5.1-.49.5-.17,1.27-.52,1.76-.17,1.42.99-.81,3.5-1.77,3.91-.83.37-2.47,1.08-3.36.69-1.71-.75-2.56-4.51-2.68-6.17-.07-.98.42-2.08.04-3.03-.28-.7-1.1-.95-1.35-1.63-.36-.85.15-1.77-.08-2.64-.48-1.8-1.5-3.45-2.02-5.28-1.02-3.61-1.32-7.44-1.68-11.16-.24-2.41.02-5.07.17-7.51.09-1,.47-2.23.08-3.23-.6-1.49-3.53-.82-4.55-.22h-.2c-.85-.34-1.35-.07-1.62.81h-.2c-.61-1.11-1.92-.79-2.84-.2h-1.62c-1.01-.33-2.84.61-3.45,1.42-.81-.28-1.23-.19-1.83.41l-4.87.81c.86-1.51,3.53-1.55,5.07-1.83,1.5-.3,4.94-1.11,5.88-2.32,1.01-1.24,1.1-4.15.81-5.59l.61-.61c1.35.21,4.31-.45,5.28-1.42l1.22.41.41-.81h.2l.81.41c0-2.03,1.34-4.05,2.2-5.88,1.25-2.68,2.32-5.37,3.28-8.12ZM93.17,146.35l-2.26,5.28-4.64,10.15h-.2l4.38-9.94,2.72-5.48ZM28.3,147.08c1.54-.73,5.21,1.83,4.92,3.53-.22,1.31-1.29.67-2.04,1.16-.41.27-.58.81-1.02,1.07-2.64,1.45-3.8-4.85-1.86-5.76ZM86.48,147.16c-.15,2.88-2.52,6.33-3.74,8.93-.45.96-.8,2.28-1.74,2.84,1.01-3.6,3.22-8.79,5.48-11.77ZM102.51,194.64c.47-2.57,3.04-4.98,4.04-7.51,2.52-6.49,4.59-13.51,5.07-20.5.22-3.14.12-6.57-1.04-9.54-.78-1.99-2.89-4.62-3.08-6.69-.14-1.47,3.65-2.22,4.74-2.13,1.37.12,1.68,1.87,2.01,2.94.98,3.14,1.56,6.29,1.91,9.54.83,7.91-4.09,22.53-4.65,23.95-.56,1.41-4.69,7.93-9,9.94ZM114.07,148.17c3.93,5.52,4.03,15.49,2.96,21.92-.4,2.37-.74,4.77-1.33,7.1-.16.76-.81,2.24-.48,2.99.4.92,1.49-.35,1.77-.75,1.2-1.62,1.83-3.65,2.72-5.48,2.99-6.06,5.03-13.07,5.32-19.89h.2c0,9.37-3.68,19.56-8.68,27.39-1.9,2.97-3.8,6.05-6.74,8.12,4.22-7.69,8.32-23.14,6.67-31.77-.48-2.51-2.4-9.62-2.4-9.62ZM90.53,148.78c-.87,4.08-3.69,8.4-5.48,12.18h-.2l3.98-8.93,1.7-3.25ZM104.33,148.78v.2h-.61l.61-.2ZM87.49,148.98l-4.87,10.55,1.01.41,3.58-7.71,1.7-3.04-5.07,11.16-1.28-1.06,1.68-4.05,2.84-6.26h.41ZM106.36,152.24c-1.62.22-4.67,5.61-2.03,5.43,1.67-.12,2.96-1.12,3.2-2.8.12-.8.1-2.8-1.18-2.63ZM106.57,152.84c1.21,2.26-.41,3.97-2.64,4.26.17-1.68,1.22-3.34,2.64-4.26ZM86.27,163.39v.2c-.85.97-.5,3.17-1.34,3.86-2.62,2.1-7.33,2.03-10.43,3.15-3.36,1.25-6.11,4.2-9.74,4.76,1.17-2.23,5.73-2.2,6.34-4.86.29-1.28-1.99-1.06-2.69-.99-3.3.37-6.37,1.61-9.74.98v-.2l11.16-2.44c-.71-2.23-2.51-1.49-4.27-1.42-2.23.04-5.37.02-7.5-.61v-.2c2.36-1,5.19-.81,7.71-.81.81,0,2.71.22,3.25-.52.77-.99-1.77-1.28-2.23-1.42-2.66-.84-5.72-1.3-8.52-1.3.4-1.13,1.66-.69,2.64-.76,2.83-.21,5.36.56,8.12.76.92.05,3.31.34,3.44-1.01.08-.79-.88-1.31-1.41-1.69-1.22-.84-2.93-1.82-3.04-3.38l7.1,3.45,6.9,1.62,4.26,2.84ZM101.29,159.5c-2.95.98-6.1,1.62-9.13,2.27-1.22.25-2.77.05-3.82.75-1.25.82-1.95,3.31-1.31,4.68.63,1.35,3.78.51,4.92.45,4.06-.2,8.32-.34,12.38-.87,1.19-.15,3.25.06,4.17-.84,1.3-1.29.72-6.69-.09-8.18-.55-1.02-5.59,1.23-7.12,1.74ZM107.37,158.25c.75.07.95.88,1.01,1.49.12,1.32.68,4.77-.47,5.71-1,.82-3.16.44-4.4.6-3.76.49-7.75.69-11.55.79-1.16.03-2.9.61-3.99.08-1.52-.75.34-3.57,1.36-3.92,3.71-1.3,7.96-1.41,11.77-2.63,1.8-.57,4.38-2.25,6.28-2.12ZM101.9,167.77c-1.53.45-1.36,3.05-1.42,4.35-.2,4.59,0,9.22.2,13.8.04.85.12,5.33,1.5,4.9,1.24-.39,1.95-3.18,2.27-4.29.55-1.98-.32-4.65-.49-6.7-.25-2.6-.03-5.28-.03-7.91,0-1.56.6-4.92-2.03-4.15ZM102.3,190.18c-1.01-.61-.82-2.94-.96-4.06-.5-4.23-.26-8.52-.26-12.78,0-1.01-.23-4.39.87-4.87,2.17-1.01,1.12,4.14,1.24,5.07.31,2.44-.03,4.88.12,7.31.12,1.5.86,3.17.7,4.67-.18,1.66-1.4,3.07-1.71,4.67ZM87.29,169.07l-.41,1.22h-.2l.61-1.22ZM88.71,169.07l-.2,1.01h-.2l.41-1.01ZM84.04,169.48l-.41,1.22h-.2l.61-1.22ZM85.46,169.48l-.61,1.83h-.2l.81-1.83ZM82.42,170.29v.2l-.61.81.61-1.01ZM80.39,170.9l-1.01,2.44h-.2l1.22-2.44ZM83.43,170.9l-.2.81h-.2l.41-.81ZM78.56,171.51l-.81,2.03h-.2l1.01-2.03ZM81.61,171.51l-.61,1.62h-.2l.81-1.62ZM76.94,171.71l-.61,1.62h-.2l.41-1.62h.41ZM75.11,172.12v.61h-.2l.2-.61ZM73.29,172.93l-.81,2.23h-.2l1.01-2.23ZM76.13,173.54l-.2.2.2-.2ZM71.46,173.74l-1.22,2.84h-.2l1.42-2.84ZM69.63,174.55l-2.84,6.49h-.2c.25-1.69,1.55-5.58,3.04-6.49ZM102.91,206.61c-1.22-1.09-2.44-6.81.61-6.27.77.13,4.1,2.93,3.62,3.71-.28.45-1.33.54-1.79.74-.97.41-1.75,1.04-2.44,1.83Z"/></g><g id="heart"><path d="M41.58,168.25c-1.94,4.29,2,9.86,2.03,13.97,3.14-2.66,9.92-3.3,11.91-7.57.93-2.02.12-4.38-1.8-5.25-1.93-.88-4.24.03-5.17,2.05.93-2.03.12-4.38-1.8-5.25-1.92-.89-4.24.04-5.17,2.05Z" fill="#e6180a"/></g><g id="diamond"><path d="M58.68,194.93l-7.43,1.91c.84-.26,1.42-.99,1.98-1.62,1.23-1.55,2.32-3.24,3.05-5.07.33-.91.66-1.93.42-2.91M51.24,196.84c1.08-.24,2.18.21,3.16.63,1.76.84,3.38,1.96,4.84,3.26.55.55,1.19,1.12,1.41,1.89l-1.98-7.68M60.65,202.61c-.26-1.15.18-2.32.61-3.38.8-1.76,1.85-3.41,3.1-4.89.5-.52,1.02-1.13,1.74-1.33l-7.43,1.91M66.11,193.02c-1.08.24-2.18-.2-3.16-.62-1.76-.84-3.38-1.97-4.84-3.26-.55-.55-1.19-1.12-1.41-1.89l1.98,7.68" fill="#e6180a"/></g><g id="club"><path d="M86.8,194.34c-.88,1.58-2.91,2.14-4.55,1.23s-2.24-2.92-1.37-4.51,2.91-2.14,4.55-1.23,2.24,2.92,1.37,4.51Z"/><path d="M87.61,201.89c-.88,1.58-2.91,2.14-4.55,1.23s-2.24-2.92-1.37-4.51,2.91-2.14,4.55-1.23,2.24,2.92,1.37,4.51Z"/><path d="M80.02,197.71c-.32.58-.8,1.02-1.35,1.31-.96.49-2.16.49-3.19-.08-1.64-.91-2.24-2.92-1.37-4.51s2.91-2.14,4.55-1.23,2.24,2.92,1.37,4.51Z"/><path d="M81.21,205.65c-1.46-.81-1.57-2.43-1.31-3.84.26-1.41.88-2.62.88-2.62l-.75-.42s-2.77,4.67-5.7,3.06l6.88,3.82Z"/><path d="M80.68,193.7c.74,2.58-.64,5.08-.64,5.08l.74.42s1.41-2.55,3.93-3.27"/><path d="M78.05,199.22c2.58-.74,5.08.64,5.08.64l.41-.74s-2.55-1.41-3.27-3.93"/><path d="M81.38,201.08c-.74-2.58-3.23-3.96-3.23-3.96l.41-.74s2.55,1.41,5.06.69"/></g><g id="spade"><path d="M63.25,156.23c-1.6.46-2.94-1-3.88-2.59-.93-1.58-1.47-3.28-1.47-3.28l-.82.23s1.82,6.89-1.39,7.82c0,0,7.55-2.18,7.55-2.18Z"/><path d="M63.99,148.59c-.97-3.33-6.67-4.31-8.9-6.52-.71,3.07-5.02,6.93-4.07,10.26.45,1.58,2.27,2.43,4.07,1.92s2.87-2.21,2.41-3.79c.45,1.58,2.27,2.43,4.07,1.92s2.87-2.21,2.41-3.79Z"/></g></g><g id="joker_text"><text transform="translate(9.28 27.11) scale(.44 1)" fill="#e6180a" font-family="Arial-BoldMT, Arial" font-size="25.75" font-weight="700" isolation="isolate"><tspan x="0" y="0">JOKER</tspan></text><text transform="translate(159.73 217.44) rotate(-180) scale(.44 1)" fill="#e6180a" font-family="Arial-BoldMT, Arial" font-size="25.75" font-weight="700" isolation="isolate"><tspan x="0" y="0">JOKER</tspan></text></g></g></g></svg>